<svg width="16" height="17" viewBox="0 0 16 17" fill="none" xmlns="http://www.w3.org/2000/svg">
<g clip-path="url(#clip0_125_1114)">
<path d="M7.99998 16.2984C12.418 16.2984 15.9996 12.65 15.9996 8.14953C15.9996 3.64904 12.418 0.000671387 7.99998 0.000671387C3.58192 0.000671387 0.000366211 3.64904 0.000366211 8.14953C0.000366211 12.65 3.58192 16.2984 7.99998 16.2984Z" fill="white"/>
<path d="M15.5428 5.43215C15.5419 5.42957 15.5411 5.42738 15.5403 5.42494C14.5164 2.48428 11.8828 0.320787 8.71851 0.0334473C9.94286 0.717193 10.3005 2.88354 10.6138 5.43215C10.8277 7.17294 10.8291 9.09105 10.6178 10.834C10.3072 13.3964 9.94805 15.578 8.71851 16.2646C11.8885 15.9769 14.5259 13.8058 15.5457 10.8572C15.5484 10.8493 15.5506 10.8416 15.5534 10.834C15.8415 9.993 16 9.09012 16 8.14914C15.9999 7.19611 15.8379 6.28215 15.5428 5.43215Z" fill="#EFECEC"/>
<path d="M11.0257 5.43228C10.7124 2.8838 9.94304 0.717492 8.71854 0.0335745C8.48169 0.0122214 8.24211 0 7.99987 0C4.5198 0 1.56024 2.26425 0.45977 5.42507C0.458894 5.4275 0.458119 5.4297 0.457243 5.43228C0.162157 6.28214 0.00012207 7.19624 0.00012207 8.1493C0.00012207 9.09028 0.158652 9.99316 0.446661 10.8342C0.449323 10.8418 0.451716 10.8495 0.454378 10.8573C1.55054 14.0264 4.51414 16.2985 7.99994 16.2985C8.24221 16.2985 8.48169 16.2864 8.71854 16.2648C9.94809 15.5782 10.7191 13.3966 11.0297 10.8342C11.241 9.09118 11.2396 7.17321 11.0257 5.43228Z" fill="#F3F4F5"/>
<path d="M15.8644 6.66071H10.418C10.4782 7.59513 10.4824 8.55451 10.4283 9.49151H15.8902C15.9617 9.0548 15.9998 8.60676 15.9998 8.14931C15.9999 7.64068 15.9525 7.14335 15.8644 6.66071Z" fill="#BE2126"/>
<path d="M11.1383 6.66056H7.27038V0.0346069C6.28081 0.125718 5.34382 0.400665 4.49142 0.825428V6.6607H0.135668C0.0476405 7.14334 0.00012207 7.64054 0.00012207 8.14931C0.00012207 8.60675 0.0382716 9.05476 0.109752 9.4915H4.49149V15.4729C5.34386 15.8977 6.28088 16.1727 7.27044 16.2638V9.49136H11.1487C11.2028 8.55437 11.1986 7.59499 11.1383 6.66056Z" fill="#D32027"/>
</g>
<defs>
<clipPath id="clip0_125_1114">
<rect width="16" height="16.2985" fill="white"/>
</clipPath>
</defs>
</svg>
