<svg width="26" height="26" viewBox="0 0 26 26" fill="none" xmlns="http://www.w3.org/2000/svg">
<path d="M12.832 5.584C11.7867 5.52 11.0187 5.66933 10.528 6.032C10.0587 6.39467 9.73867 7.04533 9.568 7.984L9.536 8.144H12.48L11.68 12.688H8.736L6.4 26H0.896L3.232 12.688H1.248L2.048 8.144H4.032L4.128 7.632C4.53333 5.43467 5.46133 3.77067 6.912 2.64C8.384 1.488 10.336 0.911999 12.768 0.911999C13.152 0.911999 13.44 0.922665 13.632 0.943998L12.832 5.584ZM15.5633 21.488H23.3393L22.5073 26H8.65125L9.45125 21.648L18.4433 12.656H11.0833L11.8833 8.144H25.4833L24.7153 12.496L15.5633 21.488Z" fill="#257231"/>
</svg>
