<svg width="32" height="32" viewBox="0 0 32 32" fill="none" xmlns="http://www.w3.org/2000/svg">
<g clip-path="url(#clip0_3_244)">
<path d="M12.9269 17.1074C12.039 16.3519 11.9315 15.0152 12.6865 14.1273C13.0881 13.6543 13.6759 13.3831 14.2974 13.3831C14.7981 13.3831 15.2843 13.5619 15.6667 13.8869L17.5271 15.4694C17.4262 13.7654 16.0261 12.4107 14.2968 12.4107C12.5023 12.4107 11.0478 13.8651 11.0478 15.6597C11.0478 17.4543 12.5022 18.9087 14.2968 18.9087C14.5251 18.9087 14.7474 18.8839 14.9624 18.8392L12.9269 17.1074Z" fill="#C0C1D6"/>
<path d="M21.4217 24.3466C19.4702 25.9206 16.9932 26.8683 14.2968 26.8683C8.02649 26.8683 2.92568 21.7674 2.92568 15.4972C2.92568 9.22693 8.02649 4.12599 14.2968 4.12599C20.567 4.12599 25.668 9.22687 25.668 15.4971C25.668 17.5465 25.1153 19.4649 24.1628 21.1271L26.4248 23.0516C27.7965 20.8578 28.592 18.2695 28.592 15.4971C28.592 7.61471 22.1793 1.20197 14.2968 1.20197C6.4144 1.20197 0.00158691 7.61478 0.00158691 15.4972C0.00158691 23.3796 6.4144 29.7923 14.2968 29.7923C17.8853 29.7923 21.1669 28.4599 23.6801 26.2679L21.4217 24.3466Z" fill="#C0C1D6"/>
<path d="M17.1889 20.7635C16.3306 21.2371 15.3448 21.5077 14.2968 21.5077C10.9826 21.5077 8.28627 18.8114 8.28627 15.4972C8.28627 12.183 10.9826 9.48666 14.2968 9.48666C17.611 9.48666 20.3074 12.183 20.3074 15.4972C20.3074 16.219 20.1726 16.9088 19.9382 17.5509L22.2608 19.5265C22.8768 18.3143 23.2313 16.948 23.2313 15.4972C23.2313 10.5708 19.2232 6.56264 14.2968 6.56264C9.37043 6.56264 5.36218 10.5709 5.36218 15.4972C5.36218 20.4235 9.37043 24.4317 14.2968 24.4317C16.2436 24.4317 18.0411 23.7987 19.51 22.7381L17.1889 20.7635Z" fill="#C0C1D6"/>
<path d="M28.7068 27.7308C28.7974 27.6233 28.862 27.5037 28.9097 27.3793L32.0016 27.5521L28.3655 24.4063L27.2517 24.9071L15.0795 14.5519C14.5716 14.12 13.8087 14.181 13.3769 14.689C12.9444 15.197 13.006 15.9592 13.5146 16.3917L25.7984 26.8417L25.6227 27.8987L28.9448 30.798L28.6276 27.8051C28.653 27.7798 28.682 27.7592 28.7068 27.7308Z" fill="#C0C1D6"/>
</g>
<defs>
<clipPath id="clip0_3_244">
<rect width="32" height="32" fill="white" transform="translate(0.00158691)"/>
</clipPath>
</defs>
</svg>
