<svg width="33" height="32" viewBox="0 0 33 32" fill="none" xmlns="http://www.w3.org/2000/svg">
<g clip-path="url(#clip0_88_1621)">
<path d="M19.5845 2.66667C22.0245 2.6655 24.3911 3.50089 26.2897 5.0335C28.1882 6.56611 29.504 8.7033 30.0174 11.0886C30.5309 13.4739 30.2111 15.9632 29.1113 18.1413C28.0115 20.3193 26.1982 22.0545 23.9739 23.0573C23.2629 24.6292 22.1812 26.0052 20.8217 27.0672C19.4622 28.1293 17.8653 28.8457 16.1681 29.1551C14.4708 29.4645 12.7239 29.3576 11.077 28.8436C9.43019 28.3296 7.9326 27.4237 6.7127 26.2038C5.4928 24.9839 4.58699 23.4864 4.07297 21.8395C3.55894 20.1927 3.45204 18.4457 3.76143 16.7485C4.07081 15.0513 4.78725 13.4544 5.84931 12.0948C6.91136 10.7353 8.28733 9.65366 9.85921 8.94267C10.7047 7.07185 12.072 5.48467 13.797 4.37147C15.522 3.25828 17.5315 2.66635 19.5845 2.66667ZM15.5845 12H12.9179V13.3333C12.0514 13.3312 11.2181 13.6666 10.5947 14.2685C9.97123 14.8703 9.60667 15.6912 9.57823 16.5573C9.5498 17.4233 9.85973 18.2664 10.4423 18.9078C11.0249 19.5493 11.8344 19.9386 12.6992 19.9933L12.9179 20H15.5845L15.7045 20.0107C15.8583 20.0385 15.9973 20.1194 16.0974 20.2393C16.1976 20.3592 16.2524 20.5105 16.2524 20.6667C16.2524 20.8229 16.1976 20.9741 16.0974 21.094C15.9973 21.2139 15.8583 21.2948 15.7045 21.3227L15.5845 21.3333H10.2512V24H12.9179V25.3333H15.5845V24C16.4511 24.0021 17.2843 23.6667 17.9078 23.0649C18.5312 22.4631 18.8958 21.6421 18.9242 20.7761C18.9526 19.91 18.6427 19.0669 18.0601 18.4255C17.4775 17.7841 16.668 17.3947 15.8032 17.34L15.5845 17.3333H12.9179L12.7979 17.3227C12.6442 17.2948 12.5051 17.2139 12.405 17.094C12.3048 16.9741 12.25 16.8229 12.25 16.6667C12.25 16.5105 12.3048 16.3592 12.405 16.2393C12.5051 16.1194 12.6442 16.0385 12.7979 16.0107L12.9179 16H18.2512V13.3333H15.5845V12ZM19.5845 5.33333C18.4548 5.33201 17.3376 5.57059 16.307 6.03328C15.2763 6.49597 14.3557 7.17224 13.6059 8.01733C15.1129 7.92585 16.6222 8.15533 18.0339 8.69059C19.4456 9.22586 20.7276 10.0547 21.7951 11.1224C22.8627 12.19 23.6914 13.4721 24.2265 14.8839C24.7616 16.2957 24.9909 17.805 24.8992 19.312C26.1115 18.2342 26.9675 16.8133 27.3536 15.2377C27.7398 13.6622 27.6379 12.0066 27.0614 10.4903C26.4849 8.97404 25.4611 7.66885 24.1258 6.74784C22.7905 5.82683 21.2067 5.33352 19.5845 5.33333Z" fill="#BA9328"/>
</g>
<defs>
<clipPath id="clip0_88_1621">
<rect width="32" height="32" fill="white" transform="translate(0.917847)"/>
</clipPath>
</defs>
</svg>
