<svg xmlns="http://www.w3.org/2000/svg" width="114" height="114" viewBox="0 0 114 114" fill="none">
  <g clip-path="url(#clip0_38_10)">
    <path d="M83.8817 39.3773C73.8515 29.3471 57.5304 29.3471 47.5 39.3775C45.4868 41.3907 43.896 43.664 42.6915 46.0836L16.7891 51.4017L31.3823 54.3984L-10.0001 56.5045L40.049 59.0523C40.1314 60.4971 40.3339 61.9355 40.6593 63.3527L7.43486 66.7112L43.1535 70.3192L43.1522 69.9415C44.2983 72.0265 45.7356 73.9952 47.4997 75.7593C57.5282 85.7877 73.8513 85.7902 83.882 75.7595C93.9124 65.7291 93.9101 49.4057 83.8817 39.3773ZM52.1512 52.8663C50.6067 51.3218 48.4924 50.7184 46.4841 51.0114C47.4555 48.1602 49.0539 45.478 51.327 43.2048C53.6007 40.9311 56.2828 39.3326 59.1336 38.3619C58.841 40.3698 59.4443 42.4841 60.9889 44.0287C63.5872 46.627 67.7966 46.6257 70.3933 44.029C71.9381 42.4843 72.5406 40.3695 72.2484 38.362C75.0991 39.3326 77.7826 40.9326 80.0547 43.2046C82.3272 45.4772 83.9267 48.1602 84.898 51.009C82.8892 50.7152 80.7757 51.3193 79.2297 52.8653C76.6331 55.4619 76.633 59.6727 79.2318 62.2716C80.7765 63.8163 82.8896 64.4185 84.8983 64.1239C83.9283 66.9759 82.33 69.6578 80.0563 71.9315C77.783 74.2048 75.0998 75.8045 72.2487 76.7734C72.5425 74.7659 71.9415 72.6513 70.3968 71.1066C67.7979 68.5078 63.5879 68.5071 60.9902 71.1048C59.4448 72.6502 58.8407 74.764 59.1335 76.7734C56.2852 75.8017 53.6022 74.2022 51.3296 71.9297C49.0576 69.6576 47.4576 66.9741 46.4878 64.1226C48.4947 64.4154 50.6086 63.8137 52.154 62.2683C54.7481 59.6739 54.7494 55.4645 52.1512 52.8663Z" fill="#C0C1D6"/>
    <path d="M70.393 52.866C72.9894 55.4624 72.9894 59.6731 70.3923 62.2701C67.7958 64.8667 63.5849 64.8669 60.9885 62.2705C58.3928 59.6747 58.3928 55.464 60.9895 52.8673C63.5866 50.2703 67.7972 50.2702 70.393 52.866Z" fill="#C0C1D6"/>
  </g>
  <defs>
    <clipPath id="clip0_38_10">
      <rect width="80" height="80" fill="white" transform="translate(56.5686) rotate(45)"/>
    </clipPath>
  </defs>
</svg>