<svg width="33" height="33" viewBox="0 0 33 33" fill="none" xmlns="http://www.w3.org/2000/svg">
<path d="M28.1526 25.9365H4.15259C3.88737 25.9365 3.63302 25.8312 3.44548 25.6436C3.25794 25.4561 3.15259 25.2017 3.15259 24.9365C3.15259 24.6713 3.25794 24.4169 3.44548 24.2294C3.63302 24.0419 3.88737 23.9365 4.15259 23.9365H28.1526C28.4178 23.9365 28.6722 24.0419 28.8597 24.2294C29.0472 24.4169 29.1526 24.6713 29.1526 24.9365C29.1526 25.2017 29.0472 25.4561 28.8597 25.6436C28.6722 25.8312 28.4178 25.9365 28.1526 25.9365Z" fill="#257231"/>
<path d="M26.1526 28.9365H6.15259C5.88737 28.9365 5.63302 28.8312 5.44548 28.6436C5.25794 28.4561 5.15259 28.2017 5.15259 27.9365C5.15259 27.6713 5.25794 27.4169 5.44548 27.2294C5.63302 27.0419 5.88737 26.9365 6.15259 26.9365H26.1526C26.4178 26.9365 26.6722 27.0419 26.8597 27.2294C27.0472 27.4169 27.1526 27.6713 27.1526 27.9365C27.1526 28.2017 27.0472 28.4561 26.8597 28.6436C26.6722 28.8312 26.4178 28.9365 26.1526 28.9365Z" fill="#257231"/>
<path d="M2.15259 17.9365H1.15259V20.9365C1.15259 21.4669 1.3633 21.9756 1.73837 22.3507C2.11345 22.7258 2.62216 22.9365 3.15259 22.9365H6.15259V21.9365C6.15143 20.876 5.72963 19.8593 4.97974 19.1094C4.22984 18.3595 3.2131 17.9377 2.15259 17.9365Z" fill="#257231"/>
<path d="M30.1526 15.9365H31.1526V11.9365H30.1526C28.5618 11.9347 27.0368 11.302 25.912 10.1771C24.7871 9.05232 24.1544 7.52725 24.1526 5.93651V4.93651H8.15259V5.93651C8.15077 7.52725 7.51804 9.05232 6.39322 10.1771C5.26839 11.302 3.74333 11.9347 2.15259 11.9365H1.15259V15.9365C1.46509 15.9365 1.79884 15.9365 2.15259 15.9365C3.74333 15.9383 5.26839 16.5711 6.39322 17.6959C7.51804 18.8207 8.15077 20.3458 8.15259 21.9365V22.9365H24.1526V21.9365C24.1544 20.3458 24.7871 18.8207 25.912 17.6959C27.0368 16.5711 28.5618 15.9383 30.1526 15.9365ZM16.1526 19.9365C14.9659 19.9365 13.8059 19.5846 12.8192 18.9253C11.8325 18.266 11.0634 17.329 10.6093 16.2326C10.1552 15.1363 10.0364 13.9299 10.2679 12.766C10.4994 11.6021 11.0708 10.533 11.9099 9.69387C12.7491 8.85475 13.8182 8.28331 14.982 8.0518C16.1459 7.82029 17.3523 7.93911 18.4487 8.39323C19.545 8.84736 20.4821 9.61639 21.1414 10.6031C21.8007 11.5898 22.1526 12.7498 22.1526 13.9365C22.1508 15.5272 21.518 17.0523 20.3932 18.1771C19.2684 19.302 17.7433 19.9347 16.1526 19.9365Z" fill="#257231"/>
<path d="M26.1526 21.9365V22.9365H29.1526C29.683 22.9365 30.1917 22.7258 30.5668 22.3507C30.9419 21.9756 31.1526 21.4669 31.1526 20.9365V17.9365H30.1526C29.0921 17.9377 28.0753 18.3595 27.3254 19.1094C26.5755 19.8593 26.1537 20.876 26.1526 21.9365Z" fill="#257231"/>
<path d="M30.1526 9.93651H31.1526V6.93651C31.1526 6.40608 30.9419 5.89737 30.5668 5.52229C30.1917 5.14722 29.683 4.93651 29.1526 4.93651H26.1526V5.93651C26.1537 6.99702 26.5755 8.01376 27.3254 8.76366C28.0753 9.51355 29.0921 9.93535 30.1526 9.93651Z" fill="#257231"/>
<path d="M6.15259 5.93651V4.93651H3.15259C2.62216 4.93651 2.11345 5.14722 1.73837 5.52229C1.3633 5.89737 1.15259 6.40608 1.15259 6.93651V9.93651H2.15259C3.2131 9.93535 4.22984 9.51355 4.97974 8.76366C5.72963 8.01376 6.15143 6.99702 6.15259 5.93651Z" fill="#257231"/>
<path d="M15.807 11.534C15.5783 11.52 15.4103 11.5527 15.303 11.632C15.2003 11.7113 15.1303 11.8537 15.093 12.059L15.086 12.094H15.73L15.555 13.088H14.911L14.4 16H13.196L13.707 13.088H13.273L13.448 12.094H13.882L13.903 11.982C13.9917 11.5013 14.1947 11.1373 14.512 10.89C14.834 10.638 15.261 10.512 15.793 10.512C15.877 10.512 15.94 10.5143 15.982 10.519L15.807 11.534ZM16.8945 15.013H18.5955L18.4135 16H15.3825L15.5575 15.048L17.5245 13.081H15.9145L16.0895 12.094H19.0645L18.8965 13.046L16.8945 15.013Z" fill="#257231"/>
</svg>
