<svg width="153" height="145" viewBox="0 0 153 145" fill="none" xmlns="http://www.w3.org/2000/svg">
<path d="M95.4759 100.331L96.5339 94.6264C97.4996 89.4203 102.785 85.9092 108.278 86.8244C113.771 87.7395 117.476 92.7483 116.511 97.9544L114.252 110.125L108.466 144.041H95.842C91.2068 128.33 90.5182 113.616 95.4759 100.331Z" fill="#FDDAAA"/>
<path d="M93.0943 100.278C99.3736 100.278 104.466 95.454 104.466 89.5014V11.5734C104.466 5.62085 99.3753 0.796703 93.0943 0.796703H61.3668C54.5618 0.796703 49.0449 6.02511 49.0449 12.4743V88.599C49.0449 95.0482 54.5618 100.277 61.3668 100.277" fill="#FB0C0C"/>
<path d="M50.7244 88.6006V12.4743C50.7244 6.02511 56.2412 0.796703 63.0462 0.796703H48.4874C41.6824 0.796703 36.1655 6.02511 36.1655 12.4743V88.599C36.1655 95.0482 41.6824 100.277 48.4874 100.277H63.0462C56.2412 100.278 50.7244 95.0498 50.7244 88.6006Z" fill="#ED2424"/>
<path d="M95.4889 100.257L78.7771 100.278L75.6853 81.8554C74.854 76.8975 69.893 73.4851 64.6599 74.2746C63.9344 74.3844 63.2442 74.5754 62.5892 74.8253C62.035 76.323 59.3395 77.7045 59.6183 79.3741L65.0882 111.381C66.4183 118.464 70.7495 125.096 76.1505 131.246C78.6528 134.784 77.9441 139.217 79.0474 144.042H95.8416L95.4889 100.257Z" fill="#FDDAAA"/>
<path d="M67.4614 111.399L62.131 79.6335C61.8505 77.9639 62.0352 76.3214 62.5894 74.8237C58.5185 76.3771 55.944 80.45 56.6611 84.7218L61.57 113.977C62.7943 120.499 66.3664 126.485 71.3409 132.148C73.645 135.406 74.9415 139.596 75.9593 144.039H83.085C81.98 139.214 80.5726 134.666 78.0703 131.128C72.6693 124.98 68.7915 118.481 67.4614 111.399Z" fill="#FEC478"/>
<path d="M65.6864 87.7682L73.5847 86.393L72.6576 80.867C72.1521 77.8541 69.1376 75.7802 65.9585 76.2593C65.2346 76.3691 64.5612 76.6015 63.96 76.931" fill="#FEC478"/>
</svg>
