<svg width="128" height="128" viewBox="0 0 128 128" fill="none" xmlns="http://www.w3.org/2000/svg">
<g clip-path="url(#clip0_54_111)">
<path d="M50.7301 37.5984C36.1721 37.5984 24.3284 49.4421 24.3284 64.0001C24.3284 78.5581 36.1721 90.4018 50.7301 90.4018C65.2881 90.4018 77.1318 78.5581 77.1318 64.0001C77.1318 49.4421 65.2881 37.5984 50.7301 37.5984ZM50.7301 86.255C38.4587 86.255 28.4752 76.2715 28.4752 64.0001C28.4752 51.7287 38.4587 41.7453 50.7301 41.7453C63.0015 41.7453 72.985 51.7287 72.985 64.0001C72.985 76.2715 63.0015 86.255 50.7301 86.255Z" fill="#C0C1D6"/>
<path d="M50.7299 46.4451C49.5848 46.4451 48.6565 47.3734 48.6565 48.5185C48.6565 49.6636 49.5848 50.5919 50.7299 50.5919C58.1232 50.5919 64.1381 56.6068 64.1381 64.0001C64.1381 65.1452 65.0665 66.0736 66.2116 66.0736C67.3567 66.0736 68.285 65.1452 68.285 64.0001C68.285 54.3202 60.4098 46.4451 50.7299 46.4451Z" fill="#C0C1D6"/>
<path d="M125.927 26.54H79.4816C78.3366 26.54 77.4082 27.4684 77.4082 28.6135V30.8251C77.4082 32.1209 76.3541 33.175 75.0583 33.175C73.7626 33.175 72.7084 32.1209 72.7084 30.8251V28.6135C72.7084 27.4684 71.7801 26.54 70.635 26.54H51.6401C32.977 26.54 17.2985 39.7188 13.9371 57.0408C12.4799 55.9433 10.6688 55.2917 8.70842 55.2917C3.90663 55.2917 0 59.1983 0 64.0001C0 68.8019 3.90663 72.7085 8.70842 72.7085C10.6588 72.7085 12.4616 72.0641 13.9147 70.9768C15.2892 78.3239 18.8334 85.0803 24.2418 90.4883C31.3252 97.5717 40.7184 101.461 50.7267 101.46C50.8348 101.46 50.9446 101.46 51.0529 101.459C71.5304 101.286 88.1901 84.074 88.1901 63.0903V57.8859C88.1901 53.4756 91.3475 49.7484 95.6978 49.0233L120.723 44.8523C124.94 44.1499 128 40.5374 128 36.2628V28.6135C128 27.4684 127.072 26.54 125.927 26.54ZM8.70842 68.5616C6.19321 68.5616 4.14687 66.5153 4.14687 64.0001C4.14687 61.4849 6.19321 59.4385 8.70842 59.4385C11.2236 59.4385 13.27 61.4849 13.27 64.0001C13.27 66.5153 11.2236 68.5616 8.70842 68.5616ZM123.853 36.2628C123.853 38.5018 122.25 40.3942 120.041 40.7621L95.0161 44.9331C88.6578 45.9927 84.0432 51.4403 84.0432 57.8862V63.0905C84.0432 81.8067 69.2281 97.1584 51.0178 97.3122C50.9211 97.313 50.8246 97.3133 50.7278 97.3133C41.8275 97.3133 33.4727 93.8548 27.1742 87.556C20.8068 81.1889 17.3422 72.7209 17.418 63.7123C17.5717 45.502 32.9236 30.6869 51.6401 30.6869H68.5616V30.8251C68.5616 34.4075 71.476 37.3219 75.0583 37.3219C78.6407 37.3219 81.5551 34.4075 81.5551 30.8251V30.6869H123.853V36.2628Z" fill="#C0C1D6"/>
</g>
<defs>
<clipPath id="clip0_54_111">
<rect width="128" height="128" fill="white"/>
</clipPath>
</defs>
</svg>
