<svg width="32" height="34" viewBox="0 0 32 34" fill="none" xmlns="http://www.w3.org/2000/svg">
<g clip-path="url(#clip0_137_2498)">
<path d="M11.0104 0H16.8047C14.2508 3.56299 11.6929 7.12309 9.13841 10.6855C10.8069 10.6858 12.4751 10.6852 14.1435 10.6861C11.6023 11.965 9.06114 13.244 6.51936 14.5221C6.34724 14.2496 6.13475 14.0054 5.94533 13.7451C5.55582 13.2322 5.16601 12.7196 4.7765 12.2066C4.39535 11.7012 4.18546 11.0698 4.18719 10.4367C4.18517 9.81797 4.38497 9.20068 4.7494 8.70046C6.8368 5.80059 8.92131 2.89871 11.0104 0ZM21.8337 0H28.1274C23.9667 5.92659 19.8037 11.8517 15.6428 17.778C17.5944 17.7786 19.5463 17.7775 21.4979 17.7786C18.5206 19.2779 15.543 20.7765 12.565 22.2743C11.9166 21.4128 11.2549 20.5611 10.601 19.7037C10.4485 19.5125 10.313 19.3073 10.2101 19.0853C9.86525 18.3578 9.85227 17.486 10.1657 16.7459C10.3372 16.32 10.6394 15.9686 10.8922 15.5909C14.54 10.3943 18.1837 5.19485 21.8337 0ZM0 26.1668C0.525885 26.1639 1.05206 26.1668 1.57794 26.1657C1.5791 28.1842 1.57794 30.2026 1.57852 32.2211C2.51987 32.222 3.46121 32.2214 4.40256 32.2214C4.40314 32.7309 4.40285 33.24 4.40256 33.7495C3.23085 33.7492 2.05914 33.7504 0.887431 33.7492C0.65159 33.4805 0.414019 33.2138 0.17789 32.9454C0.0732318 32.8275 0.0210469 32.6729 0 32.519L0 26.1668ZM5.2551 32.9788C5.83346 30.7075 6.40721 28.435 6.99277 26.1657C7.60313 26.166 8.21321 26.1657 8.82357 26.1657C9.07873 26.1616 9.32898 26.3078 9.45123 26.5321C9.50659 26.6281 9.5259 26.7386 9.55387 26.8447C10.0754 28.9136 10.6229 30.9762 11.154 33.0428C11.1658 33.2778 11.1557 33.5139 11.1586 33.7495C10.7201 33.7495 10.2816 33.7498 9.84305 33.7495C9.64757 32.9932 9.45325 32.2364 9.25748 31.4802C8.47644 31.8544 7.69482 32.2269 6.91464 32.6032C6.81633 32.9855 6.7157 33.3672 6.61624 33.7495C6.14715 33.7495 5.67777 33.7501 5.20869 33.7492C5.21618 33.4923 5.1836 33.2297 5.2551 32.9788ZM7.29233 31.127C7.91711 31.1273 8.54217 31.127 9.16695 31.1273C8.85586 29.908 8.54304 28.6893 8.23022 27.4703C7.9148 28.6884 7.604 29.908 7.29233 31.127ZM11.989 26.166C12.5143 26.1654 13.0396 26.1657 13.5652 26.1657C13.5655 28.1842 13.5652 30.2026 13.5652 32.2211C14.5065 32.222 15.4479 32.2211 16.3895 32.2217C16.3895 32.7309 16.3892 33.24 16.3895 33.7492C15.2175 33.7498 14.0455 33.7501 12.8735 33.7492C12.6524 33.4984 12.4312 33.2478 12.2095 32.9976C12.0697 32.8566 11.9864 32.6614 11.989 32.4622C11.9893 30.3635 11.989 28.2646 11.989 26.166ZM17.2723 26.166C17.7982 26.1665 18.3238 26.1637 18.8494 26.1674C18.8471 28.6948 18.8494 31.2221 18.8483 33.7498C18.3232 33.7495 17.7979 33.7495 17.2729 33.7498C17.272 31.2218 17.2726 28.6939 17.2723 26.166ZM21.7983 26.2533C22.2117 26.1426 22.6433 26.1908 23.0657 26.1801C23.6302 26.168 24.1962 26.3597 24.6341 26.7166C25.1309 27.1145 25.4605 27.7136 25.5265 28.3471C25.0139 28.3473 24.5015 28.3473 23.9889 28.3473C23.9872 28.2139 24.0022 28.074 23.9451 27.9495C23.8678 27.7612 23.6723 27.6317 23.4694 27.6306C23.0369 27.6289 22.6044 27.6306 22.1719 27.6297C22.0644 27.6271 21.9525 27.6297 21.8539 27.6779C21.6648 27.7598 21.5397 27.9619 21.5443 28.1672C21.5449 29.3876 21.5434 30.608 21.5451 31.8282C21.5469 32.0983 21.7856 32.3376 22.056 32.3388C22.5269 32.3396 22.9977 32.3393 23.4688 32.3388C23.6723 32.3388 23.8684 32.2079 23.9457 32.0193C24.0016 31.8965 23.9875 31.7587 23.9889 31.6281C23.9889 31.3608 23.9889 31.0938 23.9886 30.8268C23.546 30.8266 23.1032 30.8268 22.6603 30.8266C22.6601 30.326 22.6601 29.8258 22.6603 29.3253C23.2684 29.3247 23.8762 29.3259 24.4839 29.3247C24.7155 29.5707 24.9429 29.8203 25.173 30.0677C25.3336 30.2372 25.4458 30.4512 25.5 30.6784C25.5568 30.9041 25.534 31.1385 25.5386 31.3689C25.5438 31.9014 25.3693 32.4345 25.0459 32.858C24.7105 33.3026 24.2172 33.6252 23.6746 33.7512C23.4186 33.8149 23.1539 33.8196 22.8919 33.8155C22.5548 33.81 22.2126 33.8386 21.881 33.7625C21.4601 33.6667 21.0611 33.4646 20.7448 33.1691C20.2918 32.7511 20.0079 32.1554 19.9721 31.5396C19.9614 31.2812 19.9695 31.0229 19.9669 30.7646C19.9681 30.0052 19.9646 29.2454 19.9686 28.486C20.0024 27.8408 20.3019 27.2128 20.7892 26.787C21.0766 26.5318 21.4278 26.3528 21.7983 26.2533ZM26.1383 32.7946C26.706 30.585 27.2731 28.3753 27.8408 26.1657H29.669C29.9103 26.1608 30.1479 26.2894 30.277 26.4929C30.3586 26.6146 30.3797 26.7622 30.4172 26.9009C30.9191 28.8917 31.4369 30.8785 31.9452 32.8675C31.964 32.9535 32.0032 33.0362 31.9991 33.1262C31.9977 33.3337 31.9991 33.5416 31.9986 33.7495C31.5583 33.7495 31.1183 33.7498 30.6784 33.7495C30.4835 32.993 30.2883 32.2364 30.0934 31.4802C29.3126 31.8532 28.5324 32.2278 27.752 32.6008C27.6511 32.9834 27.5519 33.3663 27.4518 33.7492C26.9828 33.7501 26.5137 33.7495 26.0446 33.7495C26.0449 33.5892 26.0426 33.4292 26.0457 33.2692C26.0492 33.1066 26.0991 32.9506 26.1383 32.7946ZM28.1262 31.1267C28.7513 31.1276 29.3763 31.1273 30.0017 31.1267C29.6892 29.9083 29.3786 28.6893 29.0638 27.4712C28.749 28.689 28.4387 29.9083 28.1262 31.1267Z" fill="white"/>
</g>
<defs>
<clipPath id="clip0_137_2498">
<rect width="32" height="33.8164" fill="white"/>
</clipPath>
</defs>
</svg>
