<svg width="56" height="53" viewBox="0 0 56 53" fill="none" xmlns="http://www.w3.org/2000/svg">
<path d="M44.5472 27.9445C42.0297 32.9871 39.0795 37.8018 35.7297 42.3346C31.0396 42.6855 26.3312 42.7241 21.6359 42.4502L15.7811 51.8461C24.7594 52.6926 32.9053 52.9099 41.26 51.6148C47.2531 44.256 51.8805 36.6886 56 28.0122C52.806 20.5378 48.4325 13.7124 43.585 7.32429L37.7528 16.6496C40.2921 20.2425 42.563 24.0177 44.5472 27.9445ZM18.2359 35.7885C15.7189 32.1781 13.4389 28.408 11.4105 24.5021C13.9186 19.4494 16.8772 14.6332 20.2505 10.112C24.9407 9.76109 29.649 9.72245 34.3443 9.99633L40.2189 0.591981C31.7433 -0.268319 23.1986 -0.190726 14.74 0.823351C8.83615 8.04457 3.88245 15.9929 0 24.4739C3.26175 31.9257 7.35869 38.452 12.415 45.1166L18.2472 35.7913L18.2359 35.7885Z" fill="white" fill-opacity="0.24"/>
<path d="M27.9792 33.7976C29.4803 33.7976 30.9478 33.3524 32.196 32.5184C33.4442 31.6844 34.417 30.499 34.9915 29.1121C35.566 27.7252 35.7163 26.1991 35.4234 24.7268C35.1305 23.2544 34.4077 21.902 33.3462 20.8405C32.2847 19.779 30.9322 19.0561 29.4599 18.7633C27.9876 18.4704 26.4615 18.6207 25.0746 19.1952C23.6877 19.7697 22.5023 20.7425 21.6683 21.9907C20.8342 23.2389 20.3891 24.7063 20.3891 26.2075C20.3906 28.2201 21.1907 30.1498 22.6138 31.5728C24.0369 32.9959 25.9666 33.7961 27.9792 33.7976Z" fill="white" fill-opacity="0.34"/>
</svg>
