<svg width="73" height="53" viewBox="0 0 73 53" fill="none" xmlns="http://www.w3.org/2000/svg">
<path d="M43.9191 17.0262C43.8982 17.0786 43.8458 17.11 43.783 17.1205C42.4633 17.2776 41.0599 17.0891 40.5153 17.0053C39.6145 16.1046 38.63 15.0991 37.9074 14.2193C37.8341 14.1251 37.8341 13.9994 37.8969 13.9051C38.9233 12.4703 39.8659 11.3287 40.2639 10.8783C41.4055 10.6269 42.5366 10.407 43.3012 10.3756C43.364 10.3756 43.4164 10.3965 43.4478 10.4489C44.4323 11.8209 45.1445 13.1406 45.3749 13.6223C44.9351 14.8477 44.38 16.0836 43.9191 17.0262ZM42.6623 19.3513C41.9292 20.5767 41.3846 21.3099 41.2065 21.5298C40.9656 21.865 40.3477 22.7552 39.3946 23.6559C39.3318 23.7083 39.2584 23.7502 39.1747 23.7502C37.9807 23.8026 36.8705 23.7188 36.4411 23.6245C36.0745 23.4779 35.2262 23.0904 34.2102 22.5353C34.1264 22.4829 34.0741 22.3886 34.0741 22.2944C34.1264 21.5089 34.3778 20.3987 34.5978 19.2257C35.1424 18.2726 35.6975 17.1833 36.284 16.2931C36.3468 16.1988 36.462 16.1569 36.5668 16.1883C38.3158 16.6597 39.824 17.0262 40.4419 17.1624C41.2798 18.1364 42.0968 18.8277 42.6518 19.2466C42.6728 19.2675 42.6833 19.3199 42.6623 19.3513ZM32.1051 21.048C32.0213 21.1004 31.9061 21.1004 31.8223 21.0376C31.0577 20.5034 30.157 19.8122 29.4029 19.1104C28.9526 18.3459 28.6174 17.3718 28.3765 16.5444C28.366 16.4921 28.3765 16.4292 28.4079 16.3873C29.2563 15.3505 30.2722 14.5231 30.7016 14.2089C31.6652 14.6173 32.7649 14.9839 33.7285 15.3086C33.8227 15.34 33.896 15.4343 33.9065 15.5285C34.0427 17.2462 34.3569 18.6287 34.4407 19.1523C34.0636 19.5503 33.121 20.4196 32.1051 21.048ZM27.8843 14.3136C27.7586 13.5071 27.6748 12.6588 27.6643 12.2713C27.6434 11.3706 27.79 10.5746 27.9471 9.84143C27.9785 9.71575 28.0414 9.61101 28.1252 9.52723C28.6069 9.08734 29.4762 8.3123 30.0209 7.95621C30.5341 7.62106 31.9794 7.16022 32.5659 6.99265C32.6811 6.96123 32.8068 7.0136 32.8592 7.11833L33.0791 7.49537C33.5504 8.21804 34.0636 8.84645 34.2731 9.11876C33.9903 10.2604 33.8646 11.5381 33.8122 12.6169C33.8018 12.7216 33.7389 12.8054 33.6447 12.8473C32.147 13.4338 31.0054 13.8947 30.6283 14.0622C29.6019 14.1041 28.6174 14.2822 27.9471 14.3974C27.9366 14.3974 27.8947 14.3555 27.8843 14.3136ZM35.4566 6.47945C35.4985 6.41661 35.5613 6.37471 35.6451 6.36424C37.1847 6.16524 38.5986 6.13382 39.1432 6.1443C40.1277 6.80413 41.0913 7.66295 41.8663 8.49035C41.9187 8.55319 41.9292 8.63698 41.8873 8.69982C41.3427 9.55865 40.5362 10.3861 40.1906 10.7421C38.8919 11.0459 37.5094 11.4962 36.3887 11.8628C36.284 11.8942 36.1583 11.8628 36.0955 11.7685C35.2471 10.5327 34.7025 9.47486 34.493 9.07687C34.713 8.05047 35.0272 7.13928 35.4566 6.47945ZM45.7625 16.6178C45.731 16.6282 45.6996 16.6073 45.6996 16.5759C45.6368 15.3086 45.5216 14.0727 45.4587 13.6223C45.4587 12.5226 45.2807 11.3915 45.1026 10.5536C45.0922 10.5222 45.1236 10.5013 45.155 10.5013C46.1919 10.7107 46.527 11.0982 46.527 11.0982C45.9824 9.87285 45.1864 8.94071 44.3276 8.23899C43.5945 6.69939 42.7461 5.9872 42.7461 5.9872C42.8194 6.32235 42.7671 6.70986 42.6414 7.10786C42.6309 7.1288 42.61 7.14975 42.5785 7.1288C41.1751 6.43756 39.7193 6.12335 39.1537 6.05004C38.3158 5.64157 37.3942 5.36926 36.6506 5.17027C36.6296 5.15979 36.6296 5.13885 36.6401 5.12837C37.6351 4.31144 38.5462 4.10197 38.5462 4.10197C36.9333 4.03913 35.5404 4.33239 34.3883 4.77227C32.6497 4.63612 31.55 4.93985 31.55 4.93985C31.55 4.93985 32.0318 5.51589 32.2203 5.83009C32.2412 5.87199 32.2308 5.91388 32.1993 5.9453C31.1101 6.69939 30.3246 7.52679 30.0209 7.87242C29.6752 7.91431 29.0782 7.9981 28.565 8.13426C28.5441 8.13426 28.5231 8.12378 28.5336 8.10284C29.0573 6.86697 29.6229 6.17572 29.6229 6.17572C29.6229 6.17572 26.2714 8.55319 25.6429 12.8159C25.6429 12.8159 25.9153 12.0618 26.8474 10.9097C26.8579 10.8992 26.8788 10.8992 26.8893 10.9202C27.1511 11.5067 27.4549 12.0199 27.612 12.2608C27.0988 13.0882 26.7427 13.9889 26.5227 14.7221C26.5122 14.743 26.4913 14.764 26.4704 14.7744C25.6953 15.0677 25.4963 15.3505 25.4963 15.3505C25.622 15.7589 25.8524 16.1674 26.1561 16.5444C26.1771 16.5759 26.198 16.6178 26.198 16.6597C26.1143 18.482 26.7008 19.676 26.7008 19.676C26.8369 19.0371 27.0988 18.4192 27.4234 17.8432C27.4339 17.8222 27.4653 17.8117 27.4863 17.8327C28.2508 18.4401 29.0468 18.9743 29.361 19.1628C29.5181 19.5817 29.9894 20.65 30.6074 21.7498C30.6178 21.7707 30.6074 21.8021 30.5864 21.8126C29.8428 22.0849 29.0782 22.2106 28.3765 22.0325C28.3765 22.0325 29.2249 23.0799 31.8223 23.5302C32.545 24.3786 33.4247 25.0908 34.4511 25.3317C34.4511 25.3317 34.1474 24.9965 34.0741 23.7711C34.0741 23.7502 34.095 23.7292 34.116 23.7292C34.7549 23.7397 35.6242 23.7502 36.4306 23.6978C36.7134 23.9178 37.3313 24.41 37.9283 24.7242C37.9597 24.7347 37.9597 24.7871 37.9283 24.7975C36.8705 25.4364 36.1688 25.4888 36.1688 25.4888C40.9551 25.5935 43.8353 22.4724 43.8353 22.4724C43.0498 22.9856 42.1386 23.3103 41.2275 23.5093C41.196 23.5198 41.1751 23.4884 41.1751 23.4569C41.3427 22.64 41.3008 21.8545 41.2798 21.5822C42.411 21.2994 43.4059 20.7967 44.1391 20.273C44.1495 20.2625 44.1705 20.2625 44.1914 20.273C44.4952 20.4825 44.757 20.7234 45.0188 21.1213C45.0188 21.1213 45.5111 20.4196 45.6891 18.7962C46.9145 17.1938 47.1031 15.5495 47.1031 15.5495C46.7784 16.0208 46.3071 16.3664 45.7625 16.6178ZM36.284 32.4536C34.2312 32.4536 32.3669 33.3753 31.2253 34.7264L31.5814 35.1663C32.6183 33.8885 34.3673 32.9983 36.2735 32.9983C38.1797 32.9983 39.9392 33.878 40.9656 35.1663L41.3217 34.7264C40.2011 33.3753 38.3368 32.4536 36.284 32.4536ZM31.4767 32.7469C31.3405 32.8516 31.1834 32.9145 31.0473 32.8935C30.8692 32.8726 30.7645 32.7993 30.5864 32.5898L29.581 31.3539L29.0363 31.7938L30.1361 33.1449C30.3665 33.4277 30.6388 33.5848 30.953 33.6162C30.9949 33.6162 31.0263 33.6267 31.0682 33.6267C31.3719 33.6267 31.6547 33.5219 31.927 33.302C32.2308 33.0506 32.3983 32.7678 32.4402 32.4222C32.4716 32.108 32.3774 31.8148 32.147 31.532L31.0473 30.1809L30.5026 30.6208L31.5081 31.8566C31.6861 32.0661 31.728 32.1918 31.7176 32.3698C31.6966 32.4955 31.6128 32.6317 31.4767 32.7469ZM35.1947 28.8508L33.4352 29.2069C33.3514 29.2278 33.2886 29.2592 33.2467 29.3221C33.2048 29.3849 33.1943 29.4582 33.2153 29.5315L33.5609 31.2597C33.6132 31.5424 33.7389 31.7414 33.9379 31.8566C34.0636 31.93 34.2207 31.9719 34.3883 31.9719C34.4825 31.9719 34.5768 31.9614 34.6711 31.9404L35.7708 31.7205L35.6346 31.0711L34.5663 31.2911C34.3464 31.333 34.2731 31.312 34.2312 31.0607L34.1893 30.8721L35.4252 30.6208L35.2995 29.9819L34.0636 30.2333L33.9693 29.7724L35.3204 29.5001L35.1947 28.8508ZM38.6196 29.7934L39.6774 30.0657L39.845 29.4268L38.7557 29.144C38.1587 28.9869 37.7503 29.2173 37.6141 29.7724L37.1742 31.4796C37.1533 31.5634 37.1638 31.6367 37.1952 31.6995C37.2266 31.7624 37.2894 31.8043 37.3732 31.8252L37.7712 31.93L38.054 30.8302L39.2794 31.1445L39.447 30.5056L38.2216 30.1914L38.2739 30.0133C38.3263 29.762 38.3996 29.741 38.6196 29.7934ZM44.0867 31.3539L44.4638 30.8931C44.2752 30.7046 44.0867 30.5265 43.8877 30.3589C41.8035 28.568 39.1118 27.573 36.2945 27.573C33.4771 27.573 30.7854 28.5575 28.7012 30.3589C28.5022 30.5265 28.3032 30.715 28.1252 30.8931L28.5022 31.3539C28.6907 31.1654 28.8897 30.9769 29.0887 30.7988C31.0682 29.0917 33.6237 28.1595 36.3049 28.1595C38.9861 28.1595 41.5417 29.0917 43.5211 30.7988C43.6992 30.9769 43.8982 31.1549 44.0867 31.3539ZM41.2484 33.6267L41.3741 33.2077L40.8504 32.8202L41.2694 32.5165L41.5102 32.6945L41.7825 31.7729L40.1906 32.7993L39.5412 32.4327L42.0444 30.8198C42.1386 30.7569 42.2748 30.7046 42.4424 30.8302L42.5471 30.914C42.7147 31.0397 42.6937 31.1968 42.6623 31.2911L41.8349 34.1503L41.2484 33.6267ZM29.4553 47.1479H27.612V45.734H28.7117L29.162 46.1215H29.1725V44.6762H29.162L28.7117 45.0637H27.612V43.8278H29.3924L29.9056 44.3829H29.9161L29.8533 43.1575H26.0724V43.168L26.418 43.5869V47.3888L26.0724 47.8077V47.8182H30.0313L30.1256 46.4148H30.1151L29.4553 47.1479ZM30.157 37.7427L31.4662 41.0733H32.1993L33.4143 37.7008L33.6237 40.6334L33.1629 41.0523V41.0628H35.1528V41.0523L34.7653 40.6334L34.4825 36.8315L34.7863 36.4126V36.4021H33.1315L32.0108 39.5232L30.7959 36.4021H29.1201V36.4126L29.4553 36.8315L29.2563 40.6334L28.8478 41.0523V41.0628H30.4817V41.0523L30.0732 40.6334L30.157 37.7427ZM24.6584 47.1374H23.056V43.5869L23.4959 43.168V43.1575H21.5059V43.168L21.8516 43.5869V47.3888L21.5059 47.7973V47.8182H25.224L25.4021 46.3519H25.3916L24.6584 47.1374ZM21.0765 41.0523V41.0628H22.9617V41.0523L22.6161 40.6334V36.8315L22.9617 36.4126V36.4021H21.0765V36.4126L21.4117 36.8315V38.2455H19.7359V36.8315L20.0711 36.4126V36.4021H18.1858V36.4126L18.5315 36.8315V40.6334L18.1858 41.0523V41.0628H20.0711V41.0523L19.7359 40.6334V38.9891H21.4117V40.6334L21.0765 41.0523ZM50.5069 47.1479H48.6636V45.734H49.7633L50.2137 46.1215H50.2242V44.6762H50.2137L49.7633 45.0637H48.6636V43.8278H50.4441L50.9573 44.3829H50.9678L50.9049 43.1575H47.1031V43.168L47.4487 43.5869V47.3888L47.1031 47.8077V47.8182H51.062L51.1563 46.4148H51.1458L50.5069 47.1479ZM33.5504 45.9539L32.9953 44.1001L32.346 45.9539H33.5504ZM35.2052 47.3888L35.5927 47.8077V47.8182H33.5923V47.8077L33.9798 47.3888L33.7704 46.6557H32.1155L31.8642 47.3888L32.2308 47.8077V47.8182H30.6597V47.8077L31.0263 47.3888L32.4716 43.5869L32.1993 43.168V43.1575H33.7913L35.2052 47.3888ZM16.0074 40.4554C15.0438 40.4554 14.4363 39.4813 14.4363 38.6435C14.4363 37.6066 15.0019 36.9363 15.7979 36.9363C16.0074 36.9363 16.2168 36.9572 16.4054 37.0096L17.128 37.8998H17.1385L17.0861 36.4231C16.8767 36.3393 16.4263 36.2346 15.8712 36.2346C14.1745 36.2346 13.19 37.3971 13.19 38.7377C13.19 40.0678 14.1326 41.2304 15.756 41.2304C16.1959 41.2304 16.8348 41.0838 17.2747 40.7486L17.3375 39.9736H17.327C16.9604 40.2773 16.4158 40.4554 16.0074 40.4554ZM42.9137 41.0523L42.5785 40.6334V36.8315L42.9137 36.4126V36.4021H41.0285V36.4126L41.3741 36.8315V40.6334L41.0285 41.0523V41.0628H42.9137V41.0523ZM38.7767 45.6292L39.2375 46.0482V46.928C39.0909 47.0955 38.829 47.2422 38.4834 47.2422C37.656 47.2422 37.2161 46.2367 37.2161 45.3884C37.2161 44.4667 37.677 43.6917 38.6405 43.6917C38.9023 43.6917 39.1851 43.7126 39.4155 43.7964L40.1592 44.5924H40.1696L40.1277 43.3146C39.6983 43.0947 39.1851 43.0004 38.6615 43.0004C37.0904 43.0004 35.9698 43.964 35.9698 45.5559C35.9698 46.8861 36.8286 47.9963 38.1587 47.9963C38.7452 47.9963 39.2794 47.8601 39.7716 47.504L40.3582 47.9963H40.3686V46.0691L40.7352 45.6502V45.6397H38.7662V45.6292H38.7767ZM37.5617 38.8006C37.7084 38.8424 37.8759 38.8634 38.054 38.8634C38.7034 38.8634 38.9861 38.5073 38.9861 37.9836C38.9861 37.3657 38.6196 37.0724 37.9493 37.0724H37.5617V38.8006ZM36.3573 40.6334V36.8315L36.0117 36.4126V36.4021H38.232C39.5726 36.4021 40.1906 37.0096 40.1906 37.9417C40.1906 38.9053 39.4574 39.5023 38.4625 39.5023C38.1378 39.5023 37.8026 39.4813 37.5617 39.4185V40.6334L38.054 41.0523V41.0628H36.0221V41.0523L36.3573 40.6334ZM47.522 39.0729C47.522 38.2664 47.2183 36.9677 46.1814 36.9677C45.354 36.9677 45.1131 37.7951 45.1131 38.3502C45.1131 39.1671 45.4483 40.4868 46.4537 40.4868C47.1764 40.4973 47.522 39.8165 47.522 39.0729ZM46.2861 41.2304C44.8199 41.2304 43.8772 40.0259 43.8772 38.6644C43.8772 37.261 44.9665 36.2346 46.3176 36.2346C47.8153 36.2346 48.7788 37.4076 48.7788 38.7482C48.7788 40.2773 47.6163 41.2304 46.2861 41.2304ZM44.7151 43.168L45.1026 43.5869V46.2472C45.1026 47.0117 44.7256 47.2003 44.1077 47.2003C43.4897 47.2003 43.1127 47.0222 43.1127 46.2472V43.5869L43.5002 43.168V43.1575H41.5731V43.168L41.9187 43.5869V46.2472C41.9187 47.5249 42.5681 47.9858 43.961 47.9858C45.2283 47.9858 45.8672 47.5459 45.8672 46.2786V43.5869L46.2024 43.168V43.1575H44.7151V43.168ZM52.8739 36.4126L53.3243 36.8315V39.3033L51.4286 36.3917H49.7214V36.4021L50.0671 36.8211V40.6229L49.7214 41.0419V41.0523H51.282V41.0419L50.8211 40.6229V37.5228L53.1986 41.0733H54.0889V36.8315L54.4345 36.4126V36.4021H52.8844V36.4126H52.8739ZM57.6394 38.1931C56.791 37.9522 56.5292 37.8579 56.5292 37.4599C56.5292 37.0096 57.1157 36.9258 57.4823 36.9258C57.7965 36.9258 58.0793 36.9677 58.3411 37.041L59.0533 37.8056H59.0638L59.0009 36.4859C58.561 36.3183 58.0897 36.2241 57.5556 36.2241C56.4349 36.2241 55.3666 36.6116 55.3666 37.7113C55.3666 38.4235 55.8589 38.8529 56.9376 39.1462C57.765 39.3766 58.1735 39.5232 58.1735 39.9422C58.1735 40.4239 57.5556 40.5287 57.1366 40.5287C56.791 40.5287 56.4768 40.4763 56.215 40.3925L55.5028 39.5127H55.4923L55.5447 40.9162C56.0369 41.1361 56.6234 41.2199 57.1785 41.2199C58.3725 41.2199 59.378 40.7172 59.378 39.7117C59.378 38.7691 58.7181 38.4968 57.6394 38.1931ZM25.2031 39.209H26.4075L25.8524 37.3552L25.2031 39.209ZM25.0774 41.0733H23.5064V41.0628L23.8729 40.6439L25.3183 36.842L25.046 36.4231V36.4126H26.6379L28.0728 40.6544L28.4603 41.0733V41.0838H26.4599V41.0733L26.8474 40.6544L26.6379 39.9212H24.9831L24.7318 40.6544L25.0983 41.0733H25.0774Z" fill="white"/>
</svg>
