<svg width="73" height="56" viewBox="0 0 73 56" fill="none" xmlns="http://www.w3.org/2000/svg">
<path d="M68.4378 18.0001C67.227 18.0001 66.0656 18.4805 65.2086 19.3358C64.3516 20.1912 63.869 21.3516 63.8666 22.5624C63.8672 23.7745 64.349 24.9369 65.2061 25.794C66.0633 26.6511 67.2256 27.1329 68.4378 27.1335C69.6485 27.1311 70.809 26.6485 71.6643 25.7915C72.5196 24.9345 73 23.7732 73 22.5624C72.9979 21.353 72.5166 20.1938 71.6615 19.3386C70.8063 18.4835 69.6471 18.0022 68.4378 18.0001ZM63.1368 29.2574C63.1835 29.4185 63.0324 29.524 62.738 29.7506L62.5581 29.8462L62.6247 29.9684C62.6625 30.035 62.5958 30.1583 62.4725 30.2161L62.1981 30.3583C62.0748 30.4149 61.9415 30.4049 61.9038 30.3294L61.8471 30.2161L61.505 30.386L61.5627 30.5005C61.6005 30.576 61.5239 30.6893 61.4006 30.7471L61.1262 30.8804C60.9929 30.9359 60.8596 30.9181 60.8229 30.8415L60.7751 30.7371C59.7221 31.2303 58.5468 31.7524 57.3315 32.3211L57.3982 32.4822C57.4371 32.5489 57.3604 32.6622 57.2371 32.7288L56.9627 32.8521C56.8394 32.9088 56.7072 32.8899 56.6684 32.8144L56.6017 32.6633L56.204 32.8521L56.2796 33.0043C56.3173 33.0898 56.2418 33.2031 56.1185 33.2598L55.843 33.3831C55.7208 33.4409 55.5875 33.4309 55.5497 33.3453L55.4831 33.1943C54.9232 33.4209 54.3256 33.5064 53.8901 32.691C53.7002 32.3122 53.6902 31.4391 53.548 30.9748C53.4725 30.7282 53.1881 30.6904 53.1881 30.6904C47.8394 29.6662 46.0276 30.8037 42.5951 29.9595C41.5231 29.694 40.9344 28.6987 39.6069 28.6887C36.7143 28.6031 35.8522 28.642 32.7119 28.5187C32.6564 28.7035 32.606 28.8899 32.5608 29.0775L21.5212 29.0219L23.1997 29.8551L23.7496 34.7206C23.7496 34.7206 23.3052 34.8539 23.1719 34.8727C23.2764 35.8503 23.3797 37.1578 23.4374 38.3341C23.4841 39.3961 23.5419 40.5058 23.5319 41.2179C23.5219 41.4356 23.5219 41.9566 23.2186 42.5265C23.0198 42.9053 22.6687 43.2185 22.3855 43.4262C22.2899 43.5029 21.8634 43.7873 21.3702 44.0816C20.8581 44.376 20.2882 44.6793 19.9849 44.8304C20.0138 44.9637 20.1082 45.097 20.1371 45.2003C13.4221 48.4439 5.10517 49.5537 2.41137 54.7124C2.09811 55.3101 0.998378 54.9979 0.969496 54.3525C0.960609 54.0581 0.960609 53.5749 0.980604 53.3194L0.875074 53.3083C0.789539 53.3083 0.723999 53.1861 0.732886 53.0528L0.742884 52.7496C0.752881 52.6074 0.828419 52.503 0.913954 52.503L1.02726 52.513C1.06503 52.2097 1.12168 51.9153 1.19833 51.6309L1.09391 51.5932C1.01726 51.5643 0.989491 51.4321 1.03726 51.2988L1.13168 51.0144C1.18833 50.8811 1.28386 50.8056 1.3694 50.8345L1.47382 50.8622C1.94704 49.7436 2.87682 49.2504 3.30338 48.1973L3.23673 48.1696C3.15231 48.1407 3.12342 48.0074 3.17008 47.8752L3.26561 47.5908C3.32226 47.4675 3.42668 47.382 3.50333 47.4108L3.57887 47.4297C3.64552 47.2775 3.72106 47.1076 3.80659 46.9465L3.71106 46.8799C3.63552 46.8321 3.63552 46.6999 3.71106 46.5855L3.87324 46.33C3.94878 46.2156 4.07209 46.1589 4.13874 46.2067L4.1765 46.2256L4.22316 46.2356C4.24315 46.2356 4.25204 46.2256 4.27093 46.2167C4.31869 46.1689 4.36535 46.1212 4.41311 46.0834C4.84968 45.7424 5.39066 45.799 5.83499 46.0634C6.25267 46.32 7.90339 47.2587 9.48745 45.8268C12.1046 43.484 15.1672 40.2881 17.4722 40.1837C16.8468 38.8285 15.7648 36.0114 15.6415 34.9683L14.8639 34.8072C14.4663 33.9441 13.4798 29.9417 13.2043 26.9346C13.2043 26.9346 12.8822 23.691 13.1955 22.5535C13.0144 22.5346 12.6922 22.8001 12.5978 22.8001C12.1801 21.767 13.5454 13.0313 14.9017 10.4897L16.979 9.66546C16.7613 9.63658 15.2627 9.56993 11.317 9.24778C9.11754 11.1918 6.56593 13.2979 5.27624 14.4443C5.05851 14.6065 4.68749 15.8484 4.68749 15.8484C4.68749 15.8484 4.03321 16.4261 3.43668 16.8437C2.63021 17.4136 0.676233 17.8402 0.259666 17.177C0.154136 17.0148 0.174131 16.9393 0.268553 16.8437C0.571814 16.5316 1.71043 15.9817 2.09922 15.2608C1.48271 15.5729 0.780652 15.9051 0.230784 15.8484C-0.00582553 15.8384 -0.120243 15.2508 0.183018 15.1464C1.00838 14.7953 1.67155 14.6443 2.15588 13.9522C2.63021 13.2968 3.20007 12.8525 3.95767 12.8325C3.95767 12.8325 7.6279 8.04363 9.7896 5.7675C10.3883 5.14099 11.4981 5.34983 11.4981 5.34983L11.6869 4.62C11.6869 4.62 19.104 3.73799 22.5554 4.88549C22.471 2.77933 23.4186 0 26.6922 0C28.3807 0 30.8645 1.48853 31.1967 3.29921C31.3011 3.86019 30.979 4.2301 30.8079 4.93215C30.5135 6.003 30.9212 7.17939 30.7979 7.5493C30.7035 7.86145 30.3524 7.83368 30.0581 8.25024C29.7359 8.6968 29.376 9.53105 29.376 9.53105L28.9295 10.5364L26.6156 10.3653C25.7713 12.1871 24.0362 15.914 23.4297 19.5931C25.2503 19.7542 33.4717 20.9405 33.4717 20.9405L33.6717 21.6137C33.6717 21.6137 37.143 22.0303 39.9779 23.3777C40.6133 23.5288 42.2074 23.2922 43.2505 23.7754C43.326 23.7288 43.4971 23.5577 43.5637 23.5099C47.2628 24.6485 50.3154 26.5825 53.8912 27.4456C53.8912 27.4456 55.5508 27.8544 56.1196 27.9677C57.4382 28.2232 58.2824 28.281 58.9745 28.3376C60.122 28.4232 60.7574 28.4043 61.5916 28.451C62.1804 28.4898 62.8991 28.3954 63.1368 29.2574Z" fill="white" fill-opacity="0.38"/>
</svg>
