<svg width="32" height="32" viewBox="0 0 32 32" fill="none" xmlns="http://www.w3.org/2000/svg">
<g clip-path="url(#clip0_146_2)">
<path d="M0.238952 25.4648H31.788V0.22876H0.238525L0.238952 25.4648Z" fill="#D10214"/>
<path d="M28.2794 9.19203C27.8144 9.19203 27.3683 9.37654 27.0392 9.70506C26.71 10.0336 26.5246 10.4793 26.5237 10.9443C26.5239 11.4099 26.709 11.8564 27.0382 12.1856C27.3674 12.5148 27.8139 12.6999 28.2794 12.7001C28.7445 12.6992 29.1902 12.5138 29.5187 12.1846C29.8473 11.8555 30.0318 11.4094 30.0318 10.9443C30.031 10.4798 29.8461 10.0346 29.5177 9.70614C29.1892 9.37769 28.7439 9.19282 28.2794 9.19203ZM26.2434 13.5159C26.2613 13.5777 26.2033 13.6183 26.0902 13.7053L26.0211 13.742L26.0467 13.7889C26.0612 13.8145 26.0356 13.8619 25.9882 13.8841L25.8829 13.9387C25.8355 13.9605 25.7843 13.9566 25.7698 13.9276L25.748 13.8841L25.6166 13.9494L25.6388 13.9933C25.6533 14.0223 25.6239 14.0658 25.5765 14.088L25.4711 14.1392C25.4199 14.1606 25.3687 14.1537 25.3546 14.1243L25.3363 14.0842C24.9318 14.2736 24.4804 14.4742 24.0136 14.6926L24.0392 14.7545C24.0542 14.7801 24.0247 14.8236 23.9774 14.8492L23.872 14.8966C23.8246 14.9183 23.7738 14.9111 23.7589 14.8821L23.7333 14.824L23.5806 14.8966L23.6096 14.955C23.6241 14.9879 23.5951 15.0314 23.5477 15.0531L23.4419 15.1005C23.395 15.1227 23.3438 15.1189 23.3293 15.086L23.3037 15.028C23.0886 15.115 22.8591 15.1479 22.6918 14.8347C22.6189 14.6892 22.615 14.3538 22.5604 14.1755C22.5314 14.0808 22.4222 14.0663 22.4222 14.0663C20.3678 13.6729 19.6719 14.1098 18.3535 13.7855C17.9417 13.6835 17.7156 13.3013 17.2057 13.2974C16.0947 13.2646 15.7636 13.2795 14.5574 13.2321C14.5361 13.3031 14.5167 13.3747 14.4994 13.4467L10.2592 13.4254L10.9039 13.7454L11.1151 15.6142C11.1151 15.6142 10.9444 15.6654 10.8932 15.6727C10.9333 16.0481 10.973 16.5503 10.9952 17.0022C11.0131 17.4101 11.0353 17.8363 11.0314 18.1098C11.0276 18.1934 11.0276 18.3935 10.9111 18.6124C10.8348 18.7579 10.6999 18.8782 10.5911 18.958C10.5544 18.9874 10.3906 19.0967 10.2012 19.2097C10.0045 19.3228 9.78558 19.4393 9.6691 19.4973C9.68019 19.5485 9.71646 19.5997 9.72755 19.6394C7.14835 20.8853 3.9539 21.3115 2.91923 23.2929C2.79891 23.5225 2.37651 23.4026 2.36542 23.1547C2.362 23.0416 2.362 22.856 2.36968 22.7579L2.32915 22.7536C2.2963 22.7536 2.27112 22.7067 2.27454 22.6555L2.27838 22.539C2.28222 22.4844 2.31123 22.4443 2.34408 22.4443L2.3876 22.4481C2.40211 22.3317 2.42387 22.2186 2.45331 22.1094L2.4132 22.0949C2.38376 22.0838 2.3731 22.033 2.39144 21.9818L2.42771 21.8726C2.44947 21.8214 2.48616 21.7923 2.51902 21.8034L2.55912 21.8141C2.74088 21.3845 3.098 21.195 3.26184 20.7905L3.23624 20.7799C3.20382 20.7688 3.19272 20.7176 3.21064 20.6668L3.24734 20.5576C3.2691 20.5102 3.3092 20.4774 3.33864 20.4885L3.36766 20.4957C3.39326 20.4373 3.42227 20.372 3.45512 20.3101L3.41843 20.2845C3.38942 20.2662 3.38942 20.2154 3.41843 20.1714L3.48072 20.0733C3.50974 20.0294 3.5571 20.0076 3.5827 20.0259L3.5972 20.0332L3.61512 20.037C3.6228 20.037 3.62622 20.0332 3.63347 20.0298C3.65182 20.0114 3.66974 19.9931 3.68808 19.9786C3.85576 19.8476 4.06355 19.8694 4.23422 19.9709C4.39464 20.0695 5.02867 20.43 5.6371 19.88C6.64232 18.9802 7.81864 17.7527 8.70398 17.7126C8.46376 17.192 8.04819 16.11 8.00083 15.7094L7.70216 15.6475C7.54942 15.316 7.17054 13.7787 7.06472 12.6237C7.06472 12.6237 6.94099 11.3778 7.06131 10.9409C6.99176 10.9337 6.86803 11.0357 6.83176 11.0357C6.67134 10.6389 7.19571 7.28355 7.71667 6.30733L8.51454 5.99075C8.43091 5.97965 7.85534 5.95405 6.33982 5.83032C5.49502 6.57699 4.51496 7.38595 4.0196 7.82627C3.93598 7.88856 3.79347 8.36557 3.79347 8.36557C3.79347 8.36557 3.54216 8.58744 3.31304 8.74787C3.00328 8.96675 2.25278 9.13059 2.09278 8.87587C2.05224 8.81357 2.05992 8.78456 2.09619 8.74787C2.21267 8.62797 2.65 8.41677 2.79934 8.13987C2.56254 8.25976 2.29288 8.38733 2.08168 8.36557C1.9908 8.36173 1.94686 8.13603 2.06334 8.09592C2.38035 7.96109 2.63507 7.90307 2.8211 7.63725C3.00328 7.38552 3.22216 7.21485 3.51315 7.20717C3.51315 7.20717 4.92286 5.36781 5.75315 4.49357C5.98312 4.25293 6.40936 4.33315 6.40936 4.33315L6.4819 4.05283C6.4819 4.05283 9.33075 3.71405 10.6564 4.1548C10.624 3.34584 10.9879 2.27832 12.2453 2.27832C12.8938 2.27832 13.8479 2.85005 13.9754 3.54552C14.0156 3.76099 13.8918 3.90307 13.8261 4.17272C13.713 4.58403 13.8696 5.03587 13.8223 5.17795C13.786 5.29784 13.6512 5.28717 13.5381 5.44717C13.4144 5.61869 13.2761 5.93912 13.2761 5.93912L13.1046 6.32525L12.2159 6.25955C11.8916 6.95928 11.2252 8.39075 10.9922 9.80387C11.6915 9.86573 14.8493 10.3214 14.8493 10.3214L14.9261 10.58C14.9261 10.58 16.2594 10.74 17.3482 11.2575C17.5923 11.3155 18.2046 11.2247 18.6052 11.4103C18.6342 11.3923 18.6999 11.3266 18.7255 11.3083C20.1463 11.7456 21.3188 12.4885 22.6922 12.82C22.6922 12.82 23.3297 12.977 23.5481 13.0205C24.0546 13.1186 24.3789 13.1408 24.6447 13.1626C25.0854 13.1954 25.3295 13.1882 25.6499 13.2061C25.876 13.221 26.1521 13.1848 26.2434 13.5159Z" fill="white"/>
<path d="M30.1444 28.9152L29.6534 30.4486H30.6296L30.1444 28.9152ZM30.8002 31.0605H29.4707L29.2339 31.7709H28.3891L29.6017 28.3797H30.6838L31.8895 31.7709H31.037L30.8002 31.0605ZM28.0354 29.8112V31.6544C27.7188 31.7636 27.2999 31.8332 26.8625 31.8332C25.6824 31.8332 25.1286 31.3084 25.1286 30.0736C25.1286 28.8461 25.6824 28.3179 26.8625 28.3179C27.2815 28.3179 27.6787 28.3836 27.9808 28.5073V29.1631C27.6419 29.0472 27.2864 28.9869 26.9282 28.9843C26.2178 28.9843 25.9955 29.2723 25.9955 30.0736C25.9955 30.9116 26.2289 31.1885 26.8992 31.1885C27.052 31.1885 27.2013 31.1774 27.3434 31.159V30.4017H26.7136V29.8112H28.0354ZM23.6792 28.3797H24.5278V31.7709H23.6787L23.6792 28.3797ZM20.8487 28.3797H21.6935V31.1262H23.1505V31.7709H20.8487V28.3797ZM17.7523 31.6395V30.9807C18.1602 31.1151 18.5246 31.1625 18.8851 31.1625C19.2747 31.1625 19.4462 31.0605 19.4462 30.7985C19.4462 30.569 19.3732 30.5033 19.0601 30.438L18.4952 30.3211C17.9089 30.2012 17.7122 29.9605 17.7122 29.3815C17.7122 28.6383 18.1491 28.3179 19.0306 28.3179C19.4317 28.3179 19.8067 28.3831 20.1127 28.5001V29.1627C19.7813 29.0465 19.433 28.9862 19.0818 28.9843C18.6628 28.9843 18.5208 29.0935 18.5208 29.3598C18.5208 29.5782 18.6189 29.6401 18.8924 29.6981L19.4385 29.815C20.0798 29.9533 20.2547 30.1683 20.2547 30.7729C20.2547 31.5017 19.8067 31.8332 18.8924 31.8332C18.4918 31.8332 18.1056 31.767 17.7523 31.6395ZM14.8416 28.3797H17.2169V29.0283H15.6868V29.7421H16.9583V30.3795H15.6868V31.1262H17.2497V31.7709H14.842L14.8416 28.3797ZM12.6998 31.1262C13.1951 31.1262 13.3594 30.8676 13.3594 30.0736C13.3594 29.2868 13.1951 29.0283 12.6998 29.0283H12.0589V31.1262H12.6998ZM11.2103 28.3797H12.7254C13.9128 28.3797 14.223 28.8678 14.223 30.0736C14.223 31.2465 13.8838 31.7709 12.7254 31.7709H11.2103V28.3797ZM10.5144 28.3797V31.7709H9.48354L8.04098 29.3197V31.7709H7.25421V28.3797H8.28503L9.72375 30.8348V28.3797H10.5144ZM3.59341 30.6671V28.3797H4.43821V30.6419C4.43821 31.0174 4.60973 31.159 5.06839 31.159C5.52365 31.159 5.69516 31.017 5.69516 30.6419V28.3797H6.54381V30.6671C6.54381 31.465 6.0813 31.8328 5.06839 31.8328C4.05549 31.8328 3.59341 31.465 3.59341 30.6671ZM2.21613 30.7657C2.21613 30.4525 2.09239 30.3211 1.80482 30.3211H1.04322V31.1992H1.80482C2.1069 31.1992 2.21613 31.0716 2.21613 30.7657ZM1.04322 29.7967H1.75362C2.03778 29.7967 2.16535 29.673 2.16535 29.3815C2.16535 29.0756 2.04503 28.9549 1.75362 28.9549H1.04322V29.7967ZM3.03959 30.8459C3.03959 31.4505 2.75927 31.7709 1.99426 31.7709H0.238525V28.3797H1.92855C2.71917 28.3797 2.99223 28.6929 2.99223 29.2651C2.99223 29.7058 2.82839 29.9025 2.35821 30.019L2.27117 30.0446L2.34754 30.0591C2.87575 30.1756 3.03959 30.3723 3.03959 30.8459Z" fill="white"/>
</g>
<defs>
<clipPath id="clip0_146_2">
<rect width="32" height="32" fill="white"/>
</clipPath>
</defs>
</svg>
