<svg width="71" height="76" viewBox="0 0 71 76" fill="none" xmlns="http://www.w3.org/2000/svg">
<path d="M24.4298 0H37.2861C31.6195 7.90552 25.944 15.8046 20.2762 23.7089C23.9782 23.7095 27.6796 23.7082 31.3816 23.7102C25.7432 26.5479 20.1048 29.3857 14.4651 32.2215C14.0832 31.617 13.6117 31.0751 13.1914 30.4975C12.3272 29.3594 11.4623 28.222 10.5981 27.084C9.75236 25.9626 9.28665 24.5616 9.29049 23.1568C9.28601 21.784 9.72933 20.4144 10.5379 19.3045C15.1694 12.8703 19.7945 6.43163 24.4298 0ZM48.4445 0H62.4087C53.1771 13.1499 43.9403 26.2965 34.708 39.4457C39.0382 39.447 43.3691 39.4444 47.6992 39.447C41.0934 42.7737 34.4867 46.0986 27.8791 49.422C26.4404 47.5105 24.9723 45.6208 23.5215 43.7183C23.183 43.2942 22.8824 42.8387 22.654 42.3462C21.8889 40.7322 21.8601 38.7977 22.5555 37.1556C22.9361 36.2107 23.6065 35.4309 24.1676 34.5929C32.2612 23.0628 40.3458 11.5263 48.4445 0ZM0 58.0587C1.16683 58.0523 2.3343 58.0587 3.50113 58.0561C3.50368 62.5347 3.50113 67.0133 3.50241 71.4919C5.59105 71.4938 7.6797 71.4926 9.76835 71.4926C9.76963 72.6229 9.76899 73.7527 9.76835 74.883C7.16858 74.8824 4.5688 74.8849 1.96902 74.8824C1.44574 74.2862 0.918622 73.6944 0.3947 73.0989C0.162486 72.8372 0.0466987 72.4944 0 72.1528L0 58.0587ZM11.66 73.1731C12.9432 68.1335 14.2162 63.0913 15.5155 58.0561C16.8698 58.0568 18.2234 58.0561 19.5776 58.0561C20.1438 58.0472 20.6991 58.3715 20.9703 58.8692C21.0931 59.0822 21.136 59.3272 21.198 59.5626C22.3553 64.1532 23.5701 68.7297 24.7484 73.3151C24.7746 73.8365 24.7523 74.3604 24.7586 74.883C23.7857 74.883 22.8127 74.8837 21.8397 74.883C21.4059 73.2051 20.9748 71.5258 20.5404 69.8479C18.8074 70.6782 17.0732 71.5047 15.3421 72.3395C15.124 73.1878 14.9007 74.0348 14.68 74.883C13.6392 74.883 12.5978 74.8843 11.557 74.8824C11.5736 74.3124 11.5013 73.7296 11.66 73.1731ZM16.1802 69.0642C17.5664 69.0649 18.9533 69.0642 20.3395 69.0649C19.6493 66.3595 18.9552 63.6555 18.2611 60.9508C17.5613 63.6536 16.8717 66.3595 16.1802 69.0642ZM26.601 58.0568C27.7666 58.0555 28.9321 58.0561 30.0983 58.0561C30.0989 62.5347 30.0983 67.0133 30.0983 71.4919C32.1869 71.4938 34.2756 71.4919 36.3649 71.4932C36.3649 72.6229 36.3642 73.7527 36.3649 74.8824C33.7645 74.8837 31.1641 74.8843 28.5636 74.8824C28.073 74.3258 27.5823 73.7699 27.0904 73.2147C26.7801 72.9018 26.5953 72.4688 26.601 72.0267C26.6016 67.3703 26.601 62.7132 26.601 58.0568ZM38.3237 58.0568C39.4905 58.058 40.6567 58.0516 41.8229 58.06C41.8178 63.6677 41.8229 69.2753 41.8203 74.8837C40.6554 74.883 39.4899 74.883 38.325 74.8837C38.323 69.2747 38.3243 63.6657 38.3237 58.0568ZM48.3658 58.2506C49.2832 58.005 50.2408 58.1118 51.178 58.0881C52.4305 58.0612 53.6863 58.4867 54.658 59.2786C55.7602 60.1614 56.4914 61.4907 56.6379 62.8962C55.5005 62.8968 54.3637 62.8968 53.2263 62.8968C53.2225 62.6006 53.2558 62.2904 53.1291 62.014C52.9577 61.5963 52.5239 61.309 52.0736 61.3065C51.114 61.3026 50.1544 61.3065 49.1949 61.3046C48.9563 61.2988 48.7081 61.3046 48.4893 61.4114C48.0696 61.5931 47.792 62.0415 47.8022 62.497C47.8035 65.2049 47.8003 67.9128 47.8042 70.62C47.808 71.2194 48.3377 71.7504 48.9377 71.7529C49.9824 71.7548 51.027 71.7542 52.0723 71.7529C52.5239 71.7529 52.9589 71.4625 53.1304 71.0441C53.2545 70.7716 53.2231 70.4658 53.2263 70.176C53.2263 69.583 53.2263 68.9907 53.2257 68.3983C52.2437 68.3977 51.2611 68.3983 50.2786 68.3977C50.2779 67.2871 50.2779 66.1772 50.2786 65.0667C51.6277 65.0654 52.9762 65.068 54.3247 65.0654C54.8384 65.6111 55.3431 66.1651 55.8536 66.7139C56.2099 67.0901 56.4588 67.5648 56.579 68.0689C56.7051 68.5697 56.6545 69.0898 56.6648 69.6009C56.6763 70.7825 56.2893 71.9653 55.5715 72.9051C54.8275 73.8915 53.733 74.6073 52.529 74.8869C51.961 75.0282 51.3737 75.0385 50.7922 75.0295C50.0444 75.0174 49.2851 75.0807 48.5494 74.9118C47.6154 74.6994 46.7301 74.251 46.0283 73.5953C45.0233 72.6677 44.3932 71.3461 44.3139 69.9797C44.2902 69.4065 44.3081 68.8333 44.3024 68.2601C44.3049 66.5751 44.2973 64.8895 44.3062 63.2045C44.3811 61.7728 45.0457 60.3796 46.1268 59.4347C46.7646 58.8686 47.5438 58.4713 48.3658 58.2506ZM57.9954 72.7643C59.2549 67.8616 60.5133 62.9589 61.7728 58.0561H65.8292C66.3647 58.0453 66.8918 58.3306 67.1784 58.7822C67.3594 59.0522 67.4061 59.3797 67.4893 59.6874C68.603 64.1046 69.7519 68.5128 70.8797 72.9262C70.9213 73.1168 71.0083 73.3004 70.9994 73.5C70.9962 73.9606 70.9994 74.4218 70.9981 74.883C70.0212 74.883 69.0451 74.8837 68.0689 74.883C67.6364 73.2044 67.2033 71.5258 66.7709 69.8479C65.0386 70.6757 63.3075 71.5066 61.5758 72.3344C61.3519 73.1833 61.1319 74.0329 60.9099 74.8824C59.8691 74.8843 58.8283 74.883 57.7875 74.883C57.7881 74.5273 57.783 74.1723 57.79 73.8173C57.7977 73.4565 57.9084 73.1104 57.9954 72.7643ZM62.4061 69.0636C63.793 69.0655 65.1799 69.0649 66.5675 69.0636C65.874 66.3602 65.185 63.6555 64.4865 60.9527C63.7879 63.6549 63.0996 66.3602 62.4061 69.0636Z" fill="white" fill-opacity="0.27"/>
</svg>
