<?xml version="1.0" encoding="utf-8"?>
<!-- Generator: Adobe Illustrator 26.0.3, SVG Export Plug-In . SVG Version: 6.00 Build 0)  -->
<svg version="1.0" id="katman_1" xmlns="http://www.w3.org/2000/svg" xmlns:xlink="http://www.w3.org/1999/xlink" x="0px" y="0px"
	 viewBox="0 0 600 450" style="enable-background:new 0 0 600 450;" xml:space="preserve">
<style type="text/css">
	.st0{fill:#1A213C;}
	.st1{fill:#3FAF66;}
	.st2{fill:#FFFFFF;}
	.st3{fill:#C8D300;}
</style>
<path class="st0" d="M335.1,333.3c-3.3,0.1-5.8,2.7-5.7,6c0.1,3.3,2.7,5.8,6,5.7h0.1c3.2-0.1,5.7-2.7,5.7-5.8V339
	C341,335.7,338.4,333.2,335.1,333.3L335.1,333.3z M274.2,332.8c-2.8,0-5.2,2.1-5.7,4.8h11.4C279.3,334.9,277,332.8,274.2,332.8z
	 M252.5,332.8c-3.6,0-6.5,2.9-6.5,6.5c0,3.6,2.9,6.5,6.5,6.5c3.6,0,6.5-2.9,6.5-6.5v-0.1C259.1,335.7,256.1,332.8,252.5,332.8
	L252.5,332.8z"/>
<path class="st0" d="M186.4,58.5v333.8h227.5V58.5H186.4z M380.9,182.3c-11.9,25-25.2,46.9-42.5,68.1c-24.1,3.7-47.6,3.1-73.5,0.7
	l16.9-27.1c13.6,0.8,27.1,0.7,40.7-0.3c9.7-13.1,18.2-27,25.4-41.5c-5.7-11.3-12.3-22.2-19.6-32.6l16.8-26.9
	C359,141,371.7,160.7,380.9,182.3z M357.9,290.6l-1.2-5.3l9.1-5h3.5v24.8h-5.9v-17.5L357.9,290.6L357.9,290.6z M279.6,300.2
	c1.3,0.1,2.7-0.2,3.9-0.8v-6.3l5.7-0.7v10.1c-1.3,1.1-4.3,3.1-9.9,3.1c-8.3,0-14-5.7-14-12.8c0-7.1,5.7-12.7,14.2-12.7
	c3.1-0.1,6.3,0.5,9.1,1.7l-1.5,5.4c-2.3-1.1-4.9-1.7-7.4-1.5c-4.7,0-7.9,2.7-7.9,7.1S275.2,300.2,279.6,300.2L279.6,300.2z
	 M278.2,177.2c0-12.1,9.8-21.9,21.9-21.9c12.1,0.1,21.9,9.8,21.9,21.9s-9.8,21.9-21.9,21.9C288,199.1,278.2,189.3,278.2,177.2z
	 M261.9,104c24.4-2.9,49.1-3.1,73.5-0.7l-17,27.1c-13.6-0.8-27.1-0.7-40.7,0.3c-9.7,13-18.3,26.9-25.5,41.5
	c5.9,11.3,12.4,22.2,19.7,32.6l-16.8,26.9c-14.6-19.2-26.4-38-35.8-59.6C230.6,147.7,244.8,124.8,261.9,104L261.9,104z M259.5,280.4
	v24.8h-6.2v-24.8H259.5z M248.8,300v5.2h-18v-24.8h6.3v19.6L248.8,300L248.8,300z M239,348.7h-3.8v-2.5c-1.8,1.9-4.3,2.9-6.8,2.9
	c-5.5,0-9.7-4-9.7-10.1v-16.2h3.9v16c0,4.1,2.7,6.8,6.3,6.8c3.5,0,6.3-2.7,6.3-6.9v-15.9h3.9L239,348.7L239,348.7z M252.9,349.2
	c-2.5,0-4.9-1-6.7-2.8v2.3h-3.7v-25.8h3.7v9.4c1.7-1.8,4.1-2.8,6.7-2.8h1c5.4,0.3,9.6,4.9,9.3,10.3
	C262.9,345.3,258.3,349.4,252.9,349.2L252.9,349.2z M274.5,345.9c2.1,0.1,4.2-1,5.4-2.7l2.7,1.9c-1.9,2.6-4.9,4.1-8.1,4H274
	c-5.3-0.1-9.7-4.5-9.6-9.9c0-5.3,4.3-9.7,9.6-9.7c5.4,0,9.4,4.2,9.4,9.8v1.1h-15.2C268.7,343.5,271.4,345.8,274.5,345.9L274.5,345.9
	z M295.5,333.2H294c-2.4,0-4.1,1.9-4.1,4.8v10.7h-3.7v-18.8h3.5v2.3h0.1c0.9-1.5,2.6-2.5,4.4-2.4h1.3V333.2z M294.8,294.3v-13.9h6.2
	v14.4c0.1,2.9,2.4,5.1,5.3,5.3c3.1,0.1,5.7-2.2,5.8-5.3l0.1-14.4h6.2v13.9c0,7.3-4.7,11.2-11.8,11.2
	C299.5,305.5,294.8,301.7,294.8,294.3z M322.9,327.3h-13.2v6.3h12.9v4.3h-12.9v6.4h13.2v4.5h-18.2v-25.9h18.2V327.3L322.9,327.3z
	 M325.1,280.4h18.2v5.2h-12v4.5h9.7v4.9h-9.7l0.1,5h12.3v5.2h-18.5L325.1,280.4L325.1,280.4L325.1,280.4z M345.9,348.7H341v-1.7
	c-1.7,1.4-3.9,2.2-6.1,2.2h-0.4c-5-0.5-8.9-4.5-9.1-9.5c-0.3-5.5,4.1-10.2,9.6-10.5c2.2,0,4.4,0.8,6.1,2.2v-1.7l4.8-0.1L345.9,348.7
	L345.9,348.7z M361.9,333.9h-5.4v8.9c0,1,0.7,1.5,1.8,1.5h3.6v4.3h-5.2c-3.3,0-5.1-2-5.1-4.6v-10.1H348v-4.3h3.7v-5.4h4.8v5.4h5.4
	L361.9,333.9z M373,349.2c-6,0-8.9-2.7-9.5-6.6h4.8c0.6,2.1,2.2,2.7,5,2.7c2.1,0,3.5-0.7,3.5-1.9c0-0.7-0.5-1.3-2.3-1.6l-4.6-1.1
	c-4.2-0.9-6.1-2.7-6.1-5.5c0-4,3.5-6.1,8.5-6.1c5.8,0,8.7,2.6,8.9,6.6h-4.8c-0.5-2.1-2.1-2.7-4.4-2.7c-2.1,0-3.3,0.7-3.3,1.9
	c0,0.9,0.8,1.3,3.1,1.7l4.1,0.9c3.9,0.9,5.7,2.8,5.7,5.4C381.7,346.5,378.6,349.2,373,349.2L373,349.2z"/>
<path class="st1" d="M356.5,324.2h-4.8v5.4H348v4.3h3.7v10.1c0,2.5,1.8,4.6,5.1,4.6h5.2v-4.3h-3.6c-1.1,0-1.8-0.5-1.8-1.5v-8.9h5.4
	v-4.3h-5.4L356.5,324.2L356.5,324.2z M304.8,348.7h18.1v-4.4h-13.2v-6.4h12.9v-4.3h-12.9v-6.3h13.2v-4.4h-18.1V348.7z M341,331.4
	c-1.7-1.5-3.9-2.2-6.1-2.2c-5.5,0.3-9.8,4.9-9.6,10.5c0.2,5,4.1,9.1,9.1,9.5h0.4c2.2,0,4.4-0.8,6.1-2.2v1.7h4.8v-19.1l-4.8,0.1
	L341,331.4L341,331.4z M341.1,339.1L341.1,339.1c0.1,3.3-2.5,5.9-5.7,5.9h-0.1c-3.3,0.1-5.9-2.5-6-5.7c-0.1-3.3,2.5-5.9,5.7-6
	c3.3-0.1,5.9,2.5,6,5.7L341.1,339.1L341.1,339.1z M376,337.5l-4.1-0.9c-2.3-0.5-3.1-0.9-3.1-1.7c0-1.2,1.2-1.9,3.3-1.9
	c2.3,0,4,0.6,4.4,2.7h4.8c-0.3-4-3.1-6.6-8.9-6.6c-5,0-8.5,2.1-8.5,6.1c0,2.8,1.9,4.6,6.1,5.5l4.6,1.1c1.8,0.3,2.3,0.9,2.3,1.6
	c0,1.2-1.3,1.9-3.5,1.9c-2.8,0-4.3-0.6-5-2.7h-4.8c0.6,4,3.5,6.6,9.5,6.6c5.5,0,8.7-2.7,8.7-6.3C381.7,340.3,379.8,338.3,376,337.5
	L376,337.5z"/>
<path class="st2" d="M289.8,332.2h-0.1v-2.3h-3.5v18.8h3.7v-10.7c0-2.9,1.7-4.8,4.1-4.8h1.5v-3.5h-1.3
	C292.4,329.7,290.7,330.7,289.8,332.2z M283.6,339.3c0-5.6-4-9.8-9.4-9.8c-5.3,0.1-9.7,4.4-9.6,9.7c-0.1,5.3,4.2,9.8,9.6,9.9h0.4
	c3.2,0.1,6.2-1.4,8.1-4l-2.7-1.9c-1.3,1.7-3.3,2.7-5.4,2.7c-3.1,0-5.7-2.3-6.2-5.4h15.2L283.6,339.3L283.6,339.3z M268.4,337.6
	c0.5-2.8,2.9-4.8,5.7-4.8c2.8,0.1,5.2,2.1,5.7,4.8C279.8,337.6,268.4,337.6,268.4,337.6z M235.2,338.8c0,4.1-2.7,6.9-6.3,6.9
	c-3.6,0-6.3-2.7-6.3-6.8v-16h-3.9v16.2c0,6.1,4.3,10.1,9.7,10.1c2.6,0,5-1,6.8-2.9v2.5h3.8V323h-3.9L235.2,338.8L235.2,338.8z
	 M253.8,329.5h-1c-2.5,0-4.9,1-6.7,2.8v-9.4h-3.7v25.8h3.7v-2.3c1.7,1.8,4.2,2.8,6.7,2.8c5.4,0.3,10-3.9,10.3-9.3
	C263.4,334.4,259.2,329.8,253.8,329.5L253.8,329.5z M259.1,339.3c0,3.6-2.9,6.5-6.5,6.5c-3.6,0-6.5-2.9-6.5-6.5
	c0-3.6,2.9-6.5,6.5-6.5C256.1,332.8,259.1,335.7,259.1,339.3z M318.4,294.3v-13.9h-6.2l-0.1,14.4c-0.1,3.1-2.7,5.4-5.8,5.3
	c-2.9-0.1-5.1-2.4-5.3-5.3v-14.4h-6.2v13.9c0,7.3,4.7,11.2,11.8,11.2C313.6,305.5,318.4,301.7,318.4,294.3z M343.6,300h-12.3v-5h9.7
	v-4.9h-9.7v-4.5h12v-5.2h-18.2v24.8h18.5V300L343.6,300z M279.5,285.7c2.5-0.1,5.1,0.5,7.4,1.5l1.5-5.4c-2.9-1.3-6-1.9-9.1-1.7
	c-8.4,0-14.2,5.6-14.2,12.7c0,7.1,5.7,12.8,14,12.8c5.6,0,8.7-2,9.9-3.1v-10.1l-5.7,0.7v6.3c-1.2,0.5-2.5,0.8-3.9,0.8
	c-4.4,0-7.9-3.1-7.9-7.5S274.8,285.7,279.5,285.7L279.5,285.7z M369.4,305.2v-24.8h-3.5l-9.1,5l1.2,5.2l5.5-2.9v17.4H369.4
	L369.4,305.2z M230.8,280.4v24.8h18V300H237v-19.6H230.8z M253.3,280.4h6.2v24.8h-6.2V280.4z"/>
<path class="st3" d="M347.9,182.2c-7.3,14.6-15.8,28.4-25.4,41.5c-13.6,1-27.1,1.1-40.7,0.3l-16.9,27.1c25.9,2.5,49.4,3.1,73.5-0.7
	c17.3-21.2,30.6-43.1,42.5-68.1c-9.2-21.6-21.8-41.3-35.8-59.7l-16.8,26.9C335.6,159.9,342.2,170.8,347.9,182.2z M272,204.8
	c-7.3-10.4-13.8-21.3-19.7-32.6c7.2-14.6,15.8-28.4,25.5-41.5c13.6-1,27.1-1.1,40.7-0.3l17-27.1c-24.4-2.5-49.1-2.3-73.5,0.7
	c-17,20.8-31.3,43.7-42.5,68.2c9.4,21.5,21.2,40.3,35.8,59.6L272,204.8L272,204.8z"/>
<path class="st2" d="M300.1,199.1c12.1,0,21.9-9.8,21.9-21.9c-0.1-12.1-9.8-21.9-21.9-21.9c-12.1,0-21.9,9.8-21.9,21.9
	S288,199.1,300.1,199.1z"/>
</svg>
