<svg width="29" height="45" viewBox="0 0 29 45" fill="none" xmlns="http://www.w3.org/2000/svg">
<path d="M24.5275 39.5954H23.6733V40.5539H23.0189V41.3256H23.6718V43.131C23.6718 43.5828 23.9918 43.9505 24.5738 43.9505H25.5005V43.1788H24.8591C24.6578 43.1788 24.5391 43.0963 24.5391 42.9182V41.3256H25.5005V40.5539H24.5391L24.5275 39.5925V39.5954ZM15.3365 43.9534H18.5595V43.1701H16.2038V42.0307H18.4958V41.2705H16.2038V40.1427H18.5595V39.3594H15.3365V43.9534ZM21.7838 40.8782C21.4831 40.6211 21.0994 40.4817 20.7037 40.4858C20.2305 40.5087 19.7855 40.7175 19.4653 41.0666C19.1452 41.4158 18.9757 41.8772 18.9938 42.3506C19.0117 42.7834 19.1869 43.1947 19.4865 43.5074C19.7862 43.8201 20.1896 44.0127 20.6212 44.049H20.6922C21.0868 44.0474 21.4686 43.9087 21.7723 43.6566V43.965H22.6265V40.5683L21.7723 40.5799L21.7838 40.8767V40.8782ZM21.7954 42.2551V42.2667C21.7981 42.4015 21.7739 42.5354 21.7242 42.6607C21.6744 42.7861 21.6002 42.9002 21.5058 42.9965C21.4115 43.0927 21.2988 43.1692 21.1745 43.2214C21.0502 43.2736 20.9167 43.3005 20.7819 43.3004H20.7588C20.552 43.3052 20.3485 43.2486 20.174 43.1378C19.9994 43.0269 19.8616 42.8668 19.7781 42.6776C19.6946 42.4884 19.6691 42.2787 19.7047 42.075C19.7404 41.8713 19.8357 41.6828 19.9785 41.5333C20.1214 41.3838 20.3053 41.28 20.5072 41.235C20.709 41.1901 20.9197 41.206 21.1125 41.2808C21.3053 41.3556 21.4715 41.4859 21.5903 41.6552C21.709 41.8245 21.7749 42.0252 21.7795 42.2319L21.7911 42.2551H21.7954ZM27.9937 41.9583L27.2582 41.8034C26.8426 41.7208 26.7007 41.6484 26.7007 41.495C26.7007 41.2807 26.915 41.162 27.2799 41.162C27.6838 41.162 27.9922 41.2691 28.0632 41.6484H28.9174C28.8696 40.9361 28.36 40.4728 27.3248 40.4728C26.4343 40.4728 25.8045 40.8405 25.8045 41.5529C25.8045 42.0509 26.1491 42.3724 26.8976 42.5273L27.7171 42.7169C28.0371 42.7763 28.1327 42.8719 28.1327 43.0065C28.1327 43.2208 27.8952 43.3511 27.5028 43.3511C27.0048 43.3511 26.7311 43.244 26.6124 42.8646H25.7582C25.8653 43.577 26.388 44.0403 27.4565 44.0403C28.4425 44.0403 28.9999 43.5654 28.9999 42.9124C29.0115 42.4607 28.68 42.1175 27.9864 41.9626L27.9937 41.9583Z" fill="#06C167"/>
<path d="M12.6644 41.0218H12.6412V40.6179H12.0114V43.9668H12.676V42.0672C12.676 41.5445 12.9844 41.2129 13.4115 41.2129H13.6851V40.5961H13.4477C13.2913 40.5923 13.1366 40.6296 12.9991 40.7043C12.8617 40.779 12.7462 40.8885 12.6644 41.0218ZM11.5597 42.293C11.5597 41.2955 10.8473 40.5469 9.88595 40.5469C9.43175 40.56 9.00053 40.7496 8.68389 41.0755C8.36724 41.4014 8.19011 41.8379 8.19011 42.2923C8.19011 42.7467 8.36724 43.1832 8.68389 43.5091C9.00053 43.835 9.43175 44.0246 9.88595 44.0377H9.95689C10.2377 44.0438 10.5158 43.9823 10.7678 43.8583C11.0198 43.7343 11.2383 43.5515 11.4047 43.3254L10.9299 42.9808C10.8193 43.1319 10.6746 43.2548 10.5075 43.3393C10.3404 43.4239 10.1557 43.4677 9.96848 43.4672C9.69922 43.4677 9.43894 43.3705 9.23582 43.1937C9.03271 43.017 8.90053 42.7726 8.86376 42.5059H11.5713L11.5597 42.2916V42.293ZM8.85797 41.9832C8.90198 41.7465 9.02741 41.5327 9.21253 41.3789C9.39764 41.225 9.63076 41.1408 9.87147 41.1408C10.1122 41.1408 10.3453 41.225 10.5304 41.3789C10.7155 41.5327 10.841 41.7465 10.885 41.9832H8.85797ZM2.94494 42.1975C2.94494 42.933 2.45846 43.4209 1.81706 43.4209C1.17566 43.4209 0.700761 42.946 0.700761 42.2091V39.3713H0V42.2453C0 43.3254 0.760124 44.0507 1.73743 44.0507C1.96359 44.0526 2.18776 44.0083 2.39615 43.9204C2.60455 43.8325 2.79278 43.7029 2.94928 43.5396V43.974H3.62543V39.3828H2.93625L2.94783 42.1975H2.94494ZM6.25763 40.5469H6.07954C5.63341 40.549 5.20636 40.7281 4.8923 41.045V39.3713H4.23932V43.9552H4.8923V43.5396C5.04713 43.6974 5.23188 43.8228 5.43574 43.9083C5.6396 43.9938 5.85847 44.0378 6.07954 44.0377C6.54223 44.0589 6.99449 43.896 7.33724 43.5844C7.68 43.2729 7.8853 42.8382 7.90818 42.3756C7.92047 42.147 7.88747 41.9182 7.81107 41.7024C7.73467 41.4866 7.61638 41.2881 7.463 41.1182C7.30962 40.9482 7.12417 40.8103 6.91732 40.7123C6.71046 40.6142 6.48627 40.558 6.25763 40.5469ZM7.20163 42.293C7.20163 42.5221 7.1337 42.7461 7.00642 42.9365C6.87915 43.127 6.69825 43.2755 6.4866 43.3631C6.27495 43.4508 6.04206 43.4738 5.81738 43.4291C5.59269 43.3844 5.3863 43.2741 5.22431 43.1121C5.06233 42.9501 4.95201 42.7437 4.90732 42.519C4.86262 42.2943 4.88556 42.0614 4.97323 41.8498C5.0609 41.6381 5.20936 41.4572 5.39984 41.33C5.59031 41.2027 5.81426 41.1347 6.04334 41.1347C6.35054 41.1347 6.64515 41.2568 6.86237 41.474C7.0796 41.6912 7.20163 41.9858 7.20163 42.293ZM17.7464 34.2777V31.8077H16.6416L16.6301 34.3602C16.6203 34.615 16.5122 34.8561 16.3285 35.0329C16.1448 35.2097 15.8998 35.3085 15.6448 35.3085C15.3898 35.3085 15.1448 35.2097 14.9611 35.0329C14.7774 34.8561 14.6693 34.615 14.6595 34.3602V31.8077H13.5548V34.2777C13.5548 35.5808 14.3975 36.2729 15.6441 36.2729C16.8907 36.2729 17.7464 35.5953 17.7464 34.2777ZM22.2347 35.2984H20.0499V34.408H21.7714V33.5292H20.0499V32.7372H22.1782V31.8106H18.9452V36.212H22.2347V35.297V35.2984ZM10.8357 32.7459C11.2901 32.7344 11.741 32.8281 12.1533 33.0195L12.4269 32.0581C11.9153 31.832 11.3585 31.7264 10.7995 31.7498C9.30391 31.7498 8.28173 32.7473 8.28173 34.0055C8.28173 35.2637 9.29523 36.2729 10.7749 36.2729C11.7725 36.2729 12.3183 35.9167 12.5442 35.727V33.9331L11.5235 34.0634V35.1985C11.3063 35.2943 11.0716 35.3436 10.8343 35.3433C10.051 35.3433 9.42119 34.7975 9.42119 34.0128C9.42119 33.228 10.0003 32.7546 10.8343 32.7546L10.8357 32.7459ZM26.8302 36.212V31.8077H26.2004L24.573 32.6981L24.7873 33.6247L25.7617 33.1136V36.212H26.8302ZM2.16744 31.8077V36.212H5.37299V35.297H3.28373V31.8077H2.16744ZM6.18089 31.8077H7.2856V36.212H6.18089V31.8077Z" fill="white"/>
<path d="M23.007 14.3393C21.7152 16.9268 20.2013 19.3974 18.4825 21.7233C16.0758 21.9034 13.6598 21.9232 11.2505 21.7827L8.24616 26.604C12.8532 27.0384 17.0332 27.1499 21.3203 26.4853C24.3955 22.7093 26.77 18.8262 28.8839 14.374C27.2449 10.5386 25.0007 7.03629 22.5133 3.75835L19.5206 8.54351C20.8236 10.3871 21.9889 12.3243 23.007 14.3393ZM9.50579 18.3643C8.21421 16.5117 7.0443 14.5771 6.00343 12.5729C7.29042 9.98017 8.80861 7.50881 10.5396 5.18883C12.9463 5.00876 15.3623 4.98892 17.7716 5.12947L20.786 0.303766C16.4369 -0.137684 12.0523 -0.0978684 7.7119 0.42249C4.68245 4.12795 2.14053 8.2065 0.148315 12.5584C1.82203 16.3822 3.92432 19.7311 6.51887 23.1509L9.51158 18.3658L9.50579 18.3643Z" fill="#CDFB0A"/>
<path d="M14.5054 17.3427C15.2757 17.3427 16.0287 17.1143 16.6692 16.6863C17.3097 16.2583 17.8089 15.6501 18.1036 14.9384C18.3984 14.2267 18.4756 13.4436 18.3253 12.6881C18.175 11.9326 17.8041 11.2387 17.2594 10.694C16.7147 10.1493 16.0207 9.77834 15.2652 9.62806C14.5097 9.47778 13.7266 9.55491 13.0149 9.84969C12.3033 10.1445 11.695 10.6437 11.267 11.2842C10.8391 11.9246 10.6107 12.6776 10.6107 13.448C10.6114 14.4807 11.022 15.4709 11.7522 16.2011C12.4825 16.9313 13.4727 17.3419 14.5054 17.3427Z" fill="white"/>
</svg>
