<svg width="97" height="104" viewBox="0 0 97 104" fill="none" xmlns="http://www.w3.org/2000/svg">
<path d="M70.8562 102.586C70.1367 100.172 69.5654 98.1888 69.1422 96.478C64.2752 98.4617 59.8421 100.739 55.1127 102.156C46.5215 104.707 38.0784 104.14 29.921 100.456C28.207 99.7421 27.7733 98.7555 28.0589 96.9083C29.7729 88.6692 30.4924 80.5876 28.3446 72.3486C28.1965 71.9182 28.0589 71.3515 27.9108 70.9316C27.9108 70.7847 27.6251 70.6483 27.3395 70.0815C23.0439 76.3264 18.4626 82.1515 12.3155 86.9795C7.44852 76.4733 7.44852 65.6838 8.87686 54.3276C5.87206 55.1777 3.15293 56.0279 0 56.878C1.14267 46.9386 4.86693 38.5631 10.7284 30.618C8.86628 30.1876 7.28982 29.9043 5.43827 29.6209C9.16253 22.0955 14.3151 15.9976 21.3193 10.7393C20.1766 16.134 20.4623 20.6786 25.1811 23.9427C24.7473 22.3789 24.3241 20.815 24.0384 19.1148C23.8903 17.8343 23.8903 16.5643 24.0384 15.4203C24.8954 10.8757 28.1859 9.02847 32.6296 10.3089C33.4866 10.5923 34.3436 10.8757 35.4969 11.4425C34.2061 8.31476 32.0583 7.04479 29.4873 5.90077C29.4873 5.61739 29.4873 5.47045 29.3391 5.18707C33.4866 3.9066 37.4965 2.34275 41.7921 1.35617C45.5164 0.50602 49.5157 0.506019 53.3881 0.0756982C57.1124 -0.354622 59.9691 1.07278 62.4025 3.77016C63.2595 4.6203 64.1165 5.47045 65.1217 6.32059C65.2698 6.17365 65.5555 6.17366 65.693 6.03721C65.4073 4.6203 65.1217 3.33984 64.836 1.77599C65.2698 1.77599 65.693 1.77599 66.1268 1.92293C70.5599 3.20339 74.8555 4.90368 78.4317 7.88444C79.003 8.31476 79.86 8.88153 80.0081 9.58473C80.8651 12.429 81.5846 15.4098 82.4416 18.1072C78.2941 15.2629 73.9985 12.2821 69.4173 9.16491C68.6978 11.2955 68.2746 12.8594 67.7033 14.5597C64.4128 12.576 61.5455 10.7288 58.5407 9.16491C57.3981 8.59814 55.8216 8.31476 54.5308 8.59814C49.5263 9.44829 44.7969 11.2955 40.5013 14.843C41.2208 15.4098 41.9297 15.8401 43.0723 16.6903C39.9194 18.2541 37.2003 19.671 35.0631 22.7987C38.7873 22.232 39.2105 24.6459 40.3532 26.7766C42.2153 30.471 45.5058 32.3183 49.6533 32.4547C54.6578 32.6016 59.6728 32.4547 64.8254 32.4547C63.3971 30.8908 61.6725 29.327 60.1066 27.6267C58.3926 25.643 56.2448 24.9293 53.6632 25.2127C50.0871 25.4961 46.6485 24.6459 43.7918 22.3684C47.8017 17.6874 51.5154 17.5404 59.5353 21.8016C60.8261 21.0879 62.1063 20.5212 63.3971 19.818C63.5452 20.2483 63.6827 20.3847 63.6827 20.3847C61.9687 23.9323 61.9687 23.9322 64.8254 26.7766C66.5394 28.4769 68.1159 30.3241 69.6923 32.0244C71.8401 31.5941 73.9879 31.0273 76.1357 31.0273C78.2835 30.8803 80.4313 31.3107 82.8648 31.4576C79.7119 28.0465 76.5695 24.9293 73.4166 21.6652C73.5647 21.3818 73.8504 21.0984 73.9879 20.815C75.1306 21.5288 76.2733 22.0955 77.5641 22.7987C78.9924 22.5153 79.8494 19.671 81.8597 21.6652C83.288 23.0821 83.1505 24.5095 81.7116 26.3462C82.8542 27.6267 84.145 28.7602 85.4358 30.3241C85.7215 29.327 85.8696 28.9072 86.1553 28.3404H86.5891C96.8943 42.8244 99.8991 58.4419 94.027 75.8961C92.5987 74.3322 91.3079 73.0518 89.7314 71.4984C88.7263 78.1736 87.0123 83.9882 83.7218 89.2465C80.59 94.6413 76.2944 99.0389 70.8562 102.586ZM54.9646 44.2413C56.6786 47.5054 58.4032 50.4862 59.8315 53.4669C60.551 55.0308 61.5455 55.3142 62.9845 54.8838C67.9889 53.6034 71.8613 50.4862 75.8607 47.3585C76.0088 47.2115 76.2944 46.9282 76.2944 46.6448C76.2944 44.5142 76.5801 42.3835 76.1463 40.3999C75.9982 39.5497 74.1467 39.1194 73.1415 38.4162C72.4221 37.9859 71.8507 37.4191 71.1418 37.2827C70.1367 36.9993 68.994 36.569 67.9889 36.8524C63.122 38.2798 59.1226 41.1241 54.9646 44.2413ZM63.9896 61.2757C64.5609 62.5561 65.566 64.12 66.2749 65.8203C66.8463 67.1007 67.5657 67.3841 68.7084 66.8174C70.8562 65.6838 73.004 64.6867 75.4374 63.5532L76.2944 70.3649C76.5801 70.3649 76.8658 70.3649 77.0139 70.2179C80.3044 67.6675 82.4522 64.2564 82.7378 60.2786C82.886 58.4314 81.5952 55.734 80.0187 54.7369C78.7279 53.8868 75.8712 54.3066 74.2948 55.1672C70.8562 56.5946 67.5657 59.0086 63.9896 61.2757ZM85.3089 36.8629C83.7324 37.8599 82.5897 38.7101 81.2989 39.5602C80.8651 39.8436 80.4419 40.4104 80.4419 40.8407C79.1511 46.3824 82.4416 49.9299 85.8802 53.7608C88.1761 48.0722 87.4567 42.541 85.3089 36.8629Z" fill="#3B2050" fill-opacity="0.23"/>
<path d="M54.9644 44.2417C59.1119 41.114 63.1218 38.2802 67.9887 36.9997C68.9939 36.7163 70.1366 37.1467 71.1417 37.43C71.8611 37.7134 72.4325 38.1437 73.1414 38.5636C74.1465 39.1303 76.0086 39.6971 76.1461 40.5472C76.5799 42.5309 76.2943 44.6615 76.2943 46.7921C76.2943 47.0755 76.0086 47.3589 75.8605 47.5058C71.9987 50.6335 68.1369 53.7507 62.9843 55.0312C61.4078 55.4615 60.5508 55.0312 59.8313 53.6143C58.403 50.4866 56.689 47.5058 54.9644 44.2417ZM63.9894 61.2761C67.5655 59.009 70.856 56.7315 74.2946 54.8843C76.0086 54.0341 78.7277 53.6038 80.0185 54.4539C81.595 55.451 82.8858 58.1484 82.7377 59.9956C82.452 63.9735 80.3042 67.374 77.0137 69.935C76.8656 70.0819 76.5799 70.0819 76.2943 70.0819L75.4373 63.2703C73.0038 64.4038 70.856 65.5373 68.7082 66.5344C67.5655 67.1012 66.8461 66.8178 66.2747 65.5373C65.5553 64.1204 64.6983 62.4201 63.9894 61.2761ZM85.3087 36.8633C87.4565 42.5414 88.3135 47.9362 85.88 53.8977C82.4414 50.0668 79.151 46.3723 80.4418 40.9776C80.5899 40.5472 81.0131 39.9805 81.2988 39.6971C82.4414 38.7105 83.7322 37.9968 85.3087 36.8633Z" fill="white" fill-opacity="0.06"/>
</svg>
