<svg width="44" height="55" viewBox="0 0 44 55" fill="none" xmlns="http://www.w3.org/2000/svg">
<path d="M22.0048 16.9167V40.865H30.6119L22.0048 16.9167Z" fill="url(#paint0_linear_146_45)" fill-opacity="0.8"/>
<path d="M13.3935 40.8642H22.0047V16.9189L13.3935 40.8642Z" fill="url(#paint1_linear_146_45)" fill-opacity="0.8"/>
<path d="M43.9927 40.8665L22.0049 54.3392L30.6121 40.8665H43.9927Z" fill="url(#paint2_linear_146_45)" fill-opacity="0.8"/>
<path d="M22.0049 40.8665H30.6121L22.0049 54.3392V40.8665Z" fill="url(#paint3_linear_146_45)" fill-opacity="0.8"/>
<path d="M0 40.8665L22.0048 54.3392L13.3936 40.8665H0Z" fill="url(#paint4_linear_146_45)" fill-opacity="0.8"/>
<path d="M22.0046 54.3392V40.8665H13.3934L22.0046 54.3392Z" fill="url(#paint5_linear_146_45)" fill-opacity="0.8"/>
<path d="M44.0002 40.8651L26.4993 0H17.4153L0.00756836 40.8651H13.3982L22.0054 16.9229L26.0054 28.0164H22.0054L19.7103 34.9016H28.4758L30.6116 40.8621H44.0002" fill="#508DD3" fill-opacity="0.8"/>
<defs>
<linearGradient id="paint0_linear_146_45" x1="19.1778" y1="21.1943" x2="26.8723" y2="42.1402" gradientUnits="userSpaceOnUse">
<stop stop-color="#375EA8"/>
<stop offset="1" stop-color="#243D7F"/>
</linearGradient>
<linearGradient id="paint1_linear_146_45" x1="24.1925" y1="30.8335" x2="17.4797" y2="28.826" gradientUnits="userSpaceOnUse">
<stop stop-color="#375EA8"/>
<stop offset="1" stop-color="#243D7F"/>
</linearGradient>
<linearGradient id="paint2_linear_146_45" x1="41.335" y1="38.2699" x2="20.7186" y2="51.5433" gradientUnits="userSpaceOnUse">
<stop stop-color="#375EA8"/>
<stop offset="1" stop-color="#243D7F"/>
</linearGradient>
<linearGradient id="paint3_linear_146_45" x1="27.1389" y1="39.4279" x2="19.5285" y2="52.6062" gradientUnits="userSpaceOnUse">
<stop stop-color="#375EA8"/>
<stop offset="1" stop-color="#243D7F"/>
</linearGradient>
<linearGradient id="paint4_linear_146_45" x1="2.98527" y1="38.4742" x2="22.9505" y2="51.3439" gradientUnits="userSpaceOnUse">
<stop stop-color="#375EA8"/>
<stop offset="1" stop-color="#243D7F"/>
</linearGradient>
<linearGradient id="paint5_linear_146_45" x1="18.0957" y1="47.2217" x2="23.1786" y2="42.3481" gradientUnits="userSpaceOnUse">
<stop stop-color="#375EA8"/>
<stop offset="1" stop-color="#243D7F"/>
</linearGradient>
</defs>
</svg>
