<svg xmlns="http://www.w3.org/2000/svg" xmlns:xlink="http://www.w3.org/1999/xlink" width="591.72" height="1000"><defs><linearGradient id="a" x1="267.38" y1="278.03" x2="344.19" y2="487.12" gradientUnits="userSpaceOnUse"><stop offset="0" stop-color="#375ea8"/><stop offset="1" stop-color="#243d7f"/></linearGradient><linearGradient id="b" x1="317.44" y1="374.26" x2="250.43" y2="354.22" xlink:href="#a"/><linearGradient id="c" x1="488.56" y1="448.47" x2="282.76" y2="580.97" xlink:href="#a"/><linearGradient id="d" x1="346.85" y1="460.03" x2="270.88" y2="591.58" xlink:href="#a"/><linearGradient id="e" x1="105.74" y1="450.51" x2="305.04" y2="578.98" xlink:href="#a"/><linearGradient id="f" x1="256.58" y1="537.83" x2="307.32" y2="489.18" xlink:href="#a"/></defs><path d="M591.72 133.25v639H0v-639A133.25 133.25 0 0 1 133.25 0h325.22a133.25 133.25 0 0 1 133.25 133.25z" style="fill:#fff"/><path d="M591.71 772.21v94.54A133.25 133.25 0 0 1 458.47 1000H133.26A133.25 133.25 0 0 1 0 866.75v-94.54z" style="fill:#29488d"/><path style="fill:url(#a)" d="M295.6 235.33v239.06h85.92L295.6 235.33z"/><path style="fill:url(#b)" d="M209.64 474.39h85.96V235.36l-85.96 239.03z"/><path style="fill:url(#c)" d="M515.09 474.39 295.6 608.88l85.92-134.49h133.57z"/><path style="fill:url(#d)" d="M295.6 474.39h85.92L295.6 608.88V474.39z"/><path style="fill:url(#e)" d="M75.94 474.39 295.6 608.88l-85.96-134.49H75.94z"/><path style="fill:url(#f)" d="M295.6 608.88V474.39h-85.96l85.96 134.49z"/><path d="M515.15 474.39 340.45 66.46h-90.68L76 474.39h133.67l85.92-239 39.93 110.74h-39.93l-22.91 68.73h87.5l21.32 59.5h133.65" style="fill:#508dd3"/><path d="M87.4 731.56q-10.35-4.42-14.79-8.87v-2l9.86-11.84a1.38 1.38 0 0 1 2 0q11.82 8.88 23.66 8.88c9.86 0 14.79-4 14.79-10.85 0-4.93-3-7.89-13.8-9.86h-4.93c-18.74-3-28.6-11.83-28.6-27.61 0-7.89 3-14.79 8.88-19.72 4.93-4.93 13.8-7.89 23.66-7.89 11.83 0 22.68 3 30.57 9.86 1 0 1 1 0 2l-7.89 11.83c-1 1-1 1-2 1-6.9-4.93-13.81-7.88-20.71-7.88-7.89 0-12.82 4.93-12.82 9.86 0 5.91 4.93 8.87 14.79 9.86l4 1c19.72 3 29.58 11.84 29.58 27.61 0 16.77-13.81 27.61-36.48 27.61a68.12 68.12 0 0 1-19.73-3M152.13 644.79c0-1 0-1 2-1h58.18c1 0 1 0 1 1v13.81c0 1 0 2-1 2h-39.47c-1 0-1 0-1 1v17.7a1 1 0 0 0 1 1h32.54c1 0 1 0 1 1v13.8c0 1 0 2-1 2h-33.53v18.74c0 1 0 1 1 1h39.44c1 0 1 0 1 1v14.79c0 1 0 1-1 1H154.1c-2 0-2 0-2-1v-87.84M273.6 733.54c-1 0-2 0-2-1L255.85 699H244a1 1 0 0 0-1 1v32.54c0 1 0 1-2 1h-16.7c-1 0-1 0-1-1v-87.75c0-1 0-1 1-1h36.48a35.17 35.17 0 0 1 22.68 7.88c4.93 4.93 8.87 11.84 8.87 19.73 0 11.83-6.9 20.7-16.76 25.63l18.73 35.5s0 1-2 1h-18.7m-13.81-50.29c7.89 0 12.82-4.93 12.82-11.83 0-5.92-4.93-10.85-12.82-10.85H244c-1 0-1 0-1 1v20.71a1 1 0 0 0 1 1zM306.68 644.79c0-1 0-1 1-1h16.77c1 0 1 0 1 1v87.76c0 1 0 1-1 1h-16.79c-1 0-1 0-1-1v-87.76M342.71 644.79a1 1 0 0 1 1-1h59.16a1 1 0 0 1 1 1v13.81a3.45 3.45 0 0 1-1 2h-39.45a1 1 0 0 0-1 1v17.7l1 1H396c1 0 2 0 2 1v13.8a2.11 2.11 0 0 1-2 2h-33.57v18.74a1 1 0 0 0 1 1h39.44a1 1 0 0 1 1 1v14.79a1 1 0 0 1-1 1H343.7a1 1 0 0 1-1-1v-87.84M475.38 644.79c0-1 0-1 2-1h15.78c2 0 2 0 2 1l31.56 87.76c0 1 0 1-2 1h-16.8c-1 0-2 0-2-1L501 716.77h-32.52l-4.93 15.78c0 1 0 1-2 1h-17.72v-1l31.55-87.76m-1 55.22h20.7l-9.86-31.55h-1z" style="fill:#1c316f"/><rect x="75.45" y="820.21" width="142.26" height="24.55" rx="5.16" style="fill:#ca2228"/><path d="M212.55 891.77a5.16 5.16 0 0 0 5.16-5.15V872.4a5.17 5.17 0 0 0-5.16-5.17h-51.76v24.54zM80.61 867.23a5.16 5.16 0 0 0-5.16 5.17v14.22a5.15 5.15 0 0 0 5.16 5.15h51.15v-24.54zM212.55 938.81a5.17 5.17 0 0 0 5.16-5.17v-14.21a5.16 5.16 0 0 0-5.16-5.17h-51.76v24.55zM80.61 914.26a5.16 5.16 0 0 0-5.16 5.17v14.21a5.17 5.17 0 0 0 5.16 5.17h51.15v-24.55z" style="fill:#ca2228"/><path d="M336 822.5a1.37 1.37 0 0 0-1.37-1.27q-41.85.22-83.72 0a1.37 1.37 0 0 0-1.37 1.27 168.55 168.55 0 0 0 0 21.79 1.38 1.38 0 0 0 1.37 1.28q14.39-.08 28.74-.1a1.54 1.54 0 0 0-.11.55q.27 45.47 0 90.93a1.5 1.5 0 0 0 1.4 1.48 186.63 186.63 0 0 0 23.65 0A1.49 1.49 0 0 0 306 937q-.25-45.47 0-90.93a1.2 1.2 0 0 0-.11-.55q14.39 0 28.75.1a1.38 1.38 0 0 0 1.37-1.28 168.55 168.55 0 0 0-.01-21.84z" style="fill:#518e4d"/><path d="M356.08 938.43a1.49 1.49 0 0 1-1.39-1.48c.17-30.31.17-83.55 0-113.85a1.51 1.51 0 0 1 1.39-1.5 186.63 186.63 0 0 1 23.65 0 1.51 1.51 0 0 1 1.4 1.5c-.17 30.3-.17 83.54 0 113.85a1.49 1.49 0 0 1-1.4 1.48 186.63 186.63 0 0 1-23.65 0z" style="fill:#f1edf4"/><path d="M524.36 823.1a1.5 1.5 0 0 0-1.37-1.5c-1.27-.09-2.53-.13-3.8-.18h-.66a177.7 177.7 0 0 0-9.79-.13c-5.4 0-11.17 0-12.69.14-3 .34-5.41 5.13-7 9.12s-24.6 62.89-24.6 62.89-23-58.89-24.6-62.89-3.94-8.78-7-9.12c-1.51-.17-7.28-.17-12.68-.14-3.27 0-6.53 0-9.79.13h-.66c-1.26.05-2.52.09-3.79.18a1.5 1.5 0 0 0-1.37 1.5c.16 30.3.16 83.54 0 113.85a1.48 1.48 0 0 0 1.37 1.48 181.46 181.46 0 0 0 23.32 0 1.47 1.47 0 0 0 1.37-1.48c-.09-17.91-.13-43.81-.11-68.26 9.42 21.45 18.67 42.55 19.56 44.7 1.87 4.48 3.35 6.67 4.33 6.88s10 0 10 0 9.06.2 10 0 2.46-2.4 4.33-6.88c.9-2.15 10.15-23.25 19.57-44.7 0 24.45 0 50.35-.12 68.26a1.49 1.49 0 0 0 1.38 1.48 181.46 181.46 0 0 0 23.32 0 1.48 1.48 0 0 0 1.37-1.48c-.05-30.31-.05-83.55.11-113.85z" style="fill:#b22e38"/></svg>