<svg width="69" height="69" viewBox="0 0 69 69" fill="none" xmlns="http://www.w3.org/2000/svg">
<path fill-rule="evenodd" clip-rule="evenodd" d="M24.3456 11.3728C20.3721 12.1842 16.1452 13.964 16.1452 13.964C18.2382 11.1134 22.4864 7.62109 22.4864 7.62109C21.3175 5.42487 20.2825 2.17319 20.2825 2.17319C20.2825 2.17319 25.1955 2.44281 29.041 3.69109C29.041 3.69109 35.5742 0.110067 42.3437 0C42.3437 0 37.4095 2.84895 35.3131 5.50166C35.8694 5.79432 39.8156 6.97519 42.889 8.78661C42.889 8.78661 37.3327 8.9436 32.2338 9.64155C32.2338 9.64155 30.4386 12.1739 28.9207 17.9375C28.9198 17.9375 26.3055 15.0579 24.3456 11.3728Z" fill="white" fill-opacity="0.22"/>
<path fill-rule="evenodd" clip-rule="evenodd" d="M50.7418 16.1447C47.3775 12.4024 42.8878 8.7864 42.8878 8.7864C47.0174 8.84527 53.1462 11.2821 53.1462 11.2821C54.3441 9.01762 55.1829 5.90161 55.1829 5.90161C55.1829 5.90161 57.5276 9.87001 58.5924 14.2582C58.5924 14.2582 63.4601 17.1728 67.1333 22.0508C67.1333 22.0508 63.3006 21.2513 60.4789 21.265C60.4704 21.8946 61.5139 27.0721 61.2869 30.6318C61.2869 30.6318 58.1624 25.5542 55.2307 21.3247C55.2307 21.3247 50.5182 21.41 45.5669 22.7632C45.5678 22.7632 48.3408 19.5602 50.7418 16.1447ZM56.1334 40.5378C58.6146 36.3544 61.2878 30.6326 61.2878 30.6326C62.1077 34.4594 62.1811 39.3416 62.1811 39.3416C64.6427 38.8228 69.0002 36.7324 69.0002 36.7324C69.0002 36.7324 67.0591 41.903 62.7076 45.868C62.7076 45.868 63.1478 48.9661 63.199 53.0539C63.199 53.0539 60.1214 51.6828 57.5694 50.1495C57.0259 50.4661 53.9414 52.5642 48.7307 53.6427C48.7307 53.6427 50.9372 50.1956 52.7622 46.8287C52.7622 46.8287 49.1292 44.4354 46.2512 40.5131C46.2512 40.5122 51.8467 41.2187 56.1334 40.5378Z" fill="white" fill-opacity="0.22"/>
<path fill-rule="evenodd" clip-rule="evenodd" d="M38.5815 32.0027C42.3878 36.7177 46.2504 40.5146 46.2504 40.5146C39.9399 39.5769 34.8162 37.8073 34.8162 37.8073C32.2531 41.9164 29.4562 46.6937 29.4562 46.6937C29.4562 46.6937 27.8922 41.5111 27.6277 35.6289C27.6277 35.6289 24.458 34.5197 18.6159 32.2194C18.6159 32.2194 22.6457 29.7177 27.5228 28.3534C27.2378 27.7911 27.9852 20.798 28.9204 17.9397C28.9204 17.9397 31.7642 22.5497 34.0799 25.9388C34.0799 25.9388 38.6123 24.4012 45.5687 22.7647C45.5687 22.7647 41.7615 27.5949 38.5815 32.0027ZM3.93256 49.837C3.54933 49.116 3.19216 48.3815 2.86175 47.6348C2.9283 45.134 3.15185 41.913 3.79177 39.4147C3.79177 39.4147 1.95817 38.1426 0.0622877 36.489C0.0409568 36.2015 0.0162114 35.9114 0 35.6204C1.08873 35.2143 3.40014 34.3977 5.41889 33.9302C5.65012 33.3423 6.90693 29.292 9.33609 26.4976C9.33609 26.4976 9.49991 29.251 10.1603 32.9165C10.1603 32.9165 13.9956 32.0496 18.6159 32.2194C18.6159 32.2194 14.3335 35.5897 11.6373 39.0154C12.6151 42.965 14.5826 46.756 14.5826 46.756C11.6424 45.0922 8.53234 42.8883 8.53234 42.8883C7.4402 44.1869 5.24483 47.6903 3.93256 49.837ZM28.3922 67.7711C27.9163 67.6854 27.4426 67.5878 26.9716 67.4785C25.3666 65.7575 22.9187 62.9478 21.0493 59.9947C21.0493 59.9947 14.1534 59.4384 9.29428 57.3105C9.29428 57.3105 13.313 56.5554 17.7259 54.2798C17.441 53.7175 15.7592 50.6134 14.5826 46.756C14.5826 46.756 18.7967 50.1629 21.9196 52.1561C21.9196 52.1561 25.8888 49.8728 29.4562 46.6937C29.4562 46.6937 28.5509 51.0878 28.0501 56.1066C30.3549 57.4228 32.6787 58.7054 35.021 59.9538C31.4229 60.4777 27.8811 60.3676 27.8811 60.3676C27.7412 63.1543 28.1158 66.0834 28.3922 67.7711ZM58.3928 58.8105C58.3928 58.8105 53.6369 60.0673 48.9953 60.2413C48.9953 60.2413 48.9603 57.075 48.7299 53.6441C48.7299 53.6441 46.2649 57.1424 43.0474 60.5067C39.2479 60.4521 35.021 59.9538 35.021 59.9538C36.4705 61.4291 37.9617 62.8636 39.4928 64.2541C36.631 66.6867 33.986 68.3121 33.986 68.3121C34.3614 68.3172 34.7437 68.3198 35.1217 68.3146C44.1549 68.167 52.3186 64.5715 58.3928 58.8105Z" fill="white" fill-opacity="0.22"/>
</svg>
